<?xml version="1.0" encoding="UTF-8" standalone="no"?>
<!-- Created with Inkscape (http://www.inkscape.org/) -->

<svg
   version="1.1"
   id="svg125"
   width="1124.6667"
   height="582"
   viewBox="0 0 1124.6667 582"
   sodipodi:docname="alku.svg"
   inkscape:version="1.2 (dc2aedaf03, 2022-05-15)"
   xml:space="preserve"
   xmlns:inkscape="http://www.inkscape.org/namespaces/inkscape"
   xmlns:sodipodi="http://sodipodi.sourceforge.net/DTD/sodipodi-0.dtd"
   xmlns="http://www.w3.org/2000/svg"
   xmlns:svg="http://www.w3.org/2000/svg"><defs
     id="defs129" /><sodipodi:namedview
     id="namedview127"
     pagecolor="#ffffff"
     bordercolor="#000000"
     borderopacity="0.25"
     inkscape:showpageshadow="2"
     inkscape:pageopacity="0.0"
     inkscape:pagecheckerboard="0"
     inkscape:deskcolor="#d1d1d1"
     showgrid="false"
     inkscape:zoom="1.3417308"
     inkscape:cx="674.87458"
     inkscape:cy="1062.061"
     inkscape:window-width="2560"
     inkscape:window-height="1346"
     inkscape:window-x="3829"
     inkscape:window-y="-11"
     inkscape:window-maximized="1"
     inkscape:current-layer="g131" /><g
     inkscape:groupmode="layer"
     inkscape:label="Image"
     id="g131"><path
       style="fill:#000000;stroke:#000000;stroke-width:0.667;stroke-dasharray:none;stroke-opacity:1"
       d="m 307.51779,483.84696 -12.26994,-1.60735 -14.98962,-14.48163 c -8.24429,-7.9649 -15.3787,-15.08228 -15.85424,-15.81641 -0.47554,-0.73412 -3.45968,-7.48477 -6.63142,-15.00143 -3.17174,-7.51667 -7.85581,-19.21667 -10.40906,-26 l -4.64226,-12.33334 1.06447,-28.73436 1.06447,-28.73438 3.2629,-12.16817 3.26289,-12.16818 3.88079,-4.09745 c 2.13443,-2.2536 8.82708,-9.29368 14.87254,-15.64463 6.04547,-6.35095 13.33149,-13.62595 16.19116,-16.16667 l 5.1994,-4.61949 h 1.88564 c 1.0371,0 2.2591,-0.45 2.71556,-1 l 0.82992,-1 h 15.44408 15.44408 l 2.38946,1.21822 c 1.3142,0.67001 3.22638,1.87653 4.24928,2.68115 1.0229,0.80462 2.50769,1.62554 3.29953,1.82428 0.79184,0.19874 2.00126,1.31722 2.6876,2.48551 0.68634,1.1683 1.6183,2.49917 2.07102,2.95751 0.45272,0.45833 1.12818,0.83333 1.50104,0.83333 0.37284,0 1.13346,0.825 1.69026,1.83333 0.5568,1.00834 1.4772,2.80834 2.04532,4 0.56814,1.19167 1.13802,2.16667 1.26642,2.16667 0.1284,0 -0.21228,-2.025 -0.75704,-4.5 -0.54478,-2.475 -1.24117,-5.1 -1.54755,-5.83333 -0.30637,-0.73334 -1.95368,-6.88334 -3.66067,-13.66667 -1.707,-6.78333 -3.52831,-13.01095 -4.04737,-13.83915 -0.51905,-0.8282 -2.74747,-9.5282 -4.95203,-19.33333 l -4.0083,-17.82752 -3.06572,-8 c -1.68615,-4.4 -3.44562,-8.75 -3.90994,-9.66667 -0.46432,-0.91666 -1.37406,-3.16666 -2.02165,-5 -0.64759,-1.83333 -3.63812,-8.46736 -6.64561,-14.74229 -3.0075,-6.27493 -5.80582,-11.61763 -6.21849,-11.87268 -0.41267,-0.25504 -0.75031,-1.09395 -0.75031,-1.86424 0,-0.77029 -5.28163,-11.77759 -11.73695,-24.46065 -6.91564,-13.5875 -12.3927,-23.56222 -13.33333,-24.28241 -0.87801,-0.67225 -1.59639,-1.49725 -1.59639,-1.83333 0,-0.36135 12.38965,-0.61106 30.31797,-0.61106 h 30.31796 l 0.94166,1.5 c 0.51791,0.825 3.37522,8.4 6.34957,16.83333 l 5.40792,15.33333 6.99913,31.25743 6.99913,31.25743 6.7e-4,26.40924 6.6e-4,26.40924 2.23363,10.35887 c 1.22849,5.69738 2.56762,10.98293 2.97583,11.74567 0.4082,0.76275 0.57919,1.54981 0.37997,1.74904 -0.19922,0.19922 0.59263,4.66366 1.75967,9.92098 1.16703,5.25732 2.51978,11.50877 3.00609,13.8921 0.48632,2.38334 2.25502,10.29643 3.93046,17.58465 1.67543,7.28823 3.04625,13.92659 3.04625,14.75192 0,0.82533 0.48439,2.65992 1.07643,4.07687 0.59204,1.41695 1.14923,3.17859 1.23819,3.91475 0.089,0.73617 0.99832,5.08848 2.02077,9.67181 1.02245,4.58334 2.07163,8.48334 2.3315,8.66667 0.25987,0.18333 0.49754,1.23333 0.52817,2.33333 0.0306,1.1 0.67426,4.63662 1.4303,7.85916 l 1.37464,5.85914 -0.0495,8.14086 c -0.0273,4.47746 -0.48856,12.49084 -1.02516,17.80751 -0.53661,5.31667 -1.22241,14.52784 -1.524,20.46927 l -0.54834,10.80262 -6.87279,10.75913 -6.87279,10.75913 -4.38704,3.47464 c -2.41286,1.91105 -6.79099,5.32674 -9.72918,7.59042 l -5.34214,4.11578 -17.49806,1.68117 c -9.62392,0.92465 -18.46996,1.64686 -19.65784,1.60492 -1.1879,-0.0419 -7.68128,-0.79955 -14.42975,-1.68359 z m 32.72829,-4.5855 17.47208,-1.67868 6.2088,-4.82132 c 3.41484,-2.65173 7.38044,-5.57132 8.81243,-6.48799 1.43199,-0.91667 3.10575,-2.71667 3.71947,-4 0.61372,-1.28333 3.33878,-5.79941 6.0557,-10.03571 2.71691,-4.23631 4.93984,-8.23104 4.93984,-8.87716 0,-0.64614 0.30145,-1.73804 0.66988,-2.42646 0.36843,-0.68842 0.77589,-5.5437 0.90546,-10.78951 0.12958,-5.24581 0.75857,-16.68128 1.39776,-25.41216 l 1.16216,-15.87433 -0.69054,-4.12567 c -0.37981,-2.26912 -1.0041,-5.62567 -1.38732,-7.459 -0.38322,-1.83333 -1.44955,-4.98333 -2.36963,-7 -0.92008,-2.01667 -2.90024,-9.06667 -4.40035,-15.66667 -1.5001,-6.6 -3.31028,-14.7 -4.0226,-18 -0.71232,-3.3 -2.5079,-11.83534 -3.99018,-18.96743 -1.48227,-7.13209 -2.87256,-13.25468 -3.08954,-13.60576 -0.21698,-0.35109 -0.78686,-2.46574 -1.26639,-4.69923 -0.47953,-2.2335 -0.88241,-5.32984 -0.89529,-6.88075 -0.0129,-1.55091 -0.46756,-3.95091 -1.01041,-5.33333 -0.54285,-1.38242 -1.74853,-5.6635 -2.6793,-9.5135 l -1.6923,-7 0.0248,-28.18779 c 0.0151,-17.17279 -0.23038,-28.66456 -0.62818,-29.40785 -0.35912,-0.67104 -1.24315,-3.88653 -1.9645,-7.14554 -0.72137,-3.25902 -3.73449,-16.72548 -6.69585,-29.92548 -3.08977,-13.77242 -6.56639,-27.4092 -8.15822,-32 -1.52566,-4.4 -3.18319,-8.48358 -3.68338,-9.07462 -0.5002,-0.59104 -1.03614,-2.07558 -1.19096,-3.29898 -0.15484,-1.2234 -0.91564,-3.92002 -1.69069,-5.99248 l -1.40918,-3.7681 -11.31969,-0.0636 c -6.22583,-0.035 -14.87571,-0.40656 -19.22195,-0.82574 l -7.90226,-0.76216 -1.35684,0.72616 c -0.74627,0.39941 -3.02658,0.72618 -5.06735,0.72618 -2.04077,0 -3.71049,0.0962 -3.71049,0.21375 0,0.11757 1.16478,2.89257 2.58842,6.16667 1.42362,3.2741 6.08604,13.07792 10.36093,21.78625 4.27488,8.70833 8.02259,15.83333 8.32825,15.83333 0.30565,0 0.7285,0.86384 0.93966,1.91964 0.21116,1.05581 0.80976,2.34548 1.33022,2.86594 0.52046,0.52046 1.48312,1.98162 2.13924,3.24702 0.65613,1.2654 2.51135,5.30074 4.12271,8.9674 1.61136,3.66667 5.01343,11.49755 7.56016,17.40195 2.54672,5.90441 4.63041,11.04267 4.63041,11.41837 0,0.3757 0.43493,1.04405 0.9665,1.48522 0.53158,0.44116 1.46193,3.02895 2.06744,5.75063 0.60552,2.72168 1.37059,5.11516 1.70017,5.31885 0.32957,0.20368 0.59922,1.38402 0.59922,2.62296 0,1.23894 0.45729,4.29624 1.01619,6.79399 0.55891,2.49775 1.44876,5.59137 1.97746,6.8747 0.5287,1.28333 4.57141,16.45609 8.98381,33.71724 4.4124,17.26115 8.02254,32.01161 8.02254,32.77881 0,0.7672 -0.18209,1.86944 -0.40466,2.44942 -0.22256,0.58 -0.85594,1.05453 -1.40752,1.05453 h -1.00287 l 0.38314,2.16667 c 0.21073,1.19166 2.95031,22.11666 6.08795,46.5 3.13764,24.38333 6.03117,45.84046 6.43006,47.68252 l 0.72524,3.3492 -2.7093,10.40442 c -1.73792,6.67406 -3.45001,11.66068 -4.77524,13.90826 -1.13626,1.92712 -2.98574,5.32598 -4.10995,7.55303 -1.12421,2.22705 -4.93291,7.40645 -8.46377,11.50979 -3.53086,4.10333 -7.16974,7.77816 -8.08641,8.16628 -0.91667,0.38812 -2.76567,0.89636 -4.10889,1.12944 l -2.44221,0.42376 -9.89112,-3.48488 c -5.44012,-1.9167 -11.19925,-3.9347 -12.79807,-4.48445 l -2.90696,-0.99955 -10.72439,-14.41224 -10.7244,-14.41225 -5.60014,-12.66667 -5.60014,-12.66666 0.49262,-13 c 0.27094,-7.15 0.53444,-16.3 0.58554,-20.33334 0.0621,-4.90329 0.40291,-7.88561 1.0284,-9 0.51452,-0.91666 1.19602,-3.01666 1.51444,-4.66666 0.31843,-1.65 0.84533,-4.8 1.1709,-7 0.32556,-2.2 1.3248,-6.7615 2.22054,-10.13666 0.89573,-3.37515 2.08937,-6.59741 2.65253,-7.16057 0.56315,-0.56315 1.36663,-2.06233 1.78549,-3.33149 0.41886,-1.26917 1.2975,-2.47768 1.95254,-2.68558 0.65504,-0.2079 1.55746,-1.19723 2.0054,-2.19852 0.44794,-1.00128 1.46846,-2.80793 2.26784,-4.01477 0.79938,-1.20684 4.94764,-5.03184 9.21838,-8.5 l 7.76496,-6.30575 h 3.92741 c 2.61121,0 4.80386,0.44684 6.54266,1.33334 1.4384,0.73333 3.37966,1.33333 4.31394,1.33333 0.97666,0 2.05259,0.56672 2.53135,1.33333 0.45797,0.73334 1.11979,1.33334 1.47071,1.33334 0.35092,0 1.51609,0.825 2.58928,1.83333 1.07318,1.00833 2.97506,2.73333 4.22639,3.83333 1.25133,1.1 2.80862,3.4255 3.46064,5.16778 0.65202,1.74229 1.68549,3.54229 2.29659,4 0.61111,0.45772 1.18883,1.31182 1.28382,1.89798 0.095,0.58617 1.85922,4.78617 3.9205,9.33334 2.06128,4.54716 4.34512,10.36757 5.07518,12.93424 0.73006,2.56666 1.86849,6.71932 2.52985,9.22813 0.66135,2.50881 1.37481,4.73381 1.58544,4.94445 0.21064,0.21063 0.38298,0.0501 0.38298,-0.35678 0,-0.40686 -1.64295,-13.37411 -3.65101,-28.8161 -2.00806,-15.442 -3.85263,-28.40259 -4.09906,-28.80132 -0.24642,-0.39872 -3.13545,-4.65647 -6.42006,-9.46166 -3.2846,-4.8052 -6.61502,-9.25505 -7.40094,-9.88856 -0.78591,-0.63352 -2.08622,-1.15852 -2.88958,-1.16667 -0.80336,-0.008 -1.6247,-0.28024 -1.82518,-0.60463 -0.20048,-0.32439 -1.34319,-0.78575 -2.53934,-1.02524 -1.19616,-0.23949 -3.67483,-0.75135 -5.50816,-1.13747 -1.83334,-0.38612 -5.58334,-0.85295 -8.33334,-1.03739 -2.75,-0.18445 -7.77693,-0.12904 -11.17095,0.12314 l -6.17094,0.4585 -4.76063,3.7708 c -2.61835,2.07394 -6.39943,5.3458 -8.40241,7.2708 -2.00298,1.925 -3.88856,3.5 -4.19016,3.5 -0.30162,0 -0.75751,0.675 -1.01309,1.5 -0.25559,0.825 -3.64605,4.8 -7.53436,8.83333 -3.88831,4.03333 -8.65494,8.99763 -10.59252,11.03176 -1.93758,2.03413 -3.65871,4.4038 -3.82474,5.26593 -0.16603,0.86212 -0.89927,2.12405 -1.62941,2.80428 -0.73014,0.68023 -1.65646,2.45834 -2.05848,3.95134 -0.40202,1.49302 -0.63826,3.8168 -0.52496,5.16396 0.11329,1.34717 -0.35389,4.8494 -1.03818,7.78273 -0.6843,2.93333 -1.67862,6.83922 -2.20962,8.67975 l -0.96545,3.34641 0.35554,7.98692 c 0.19555,4.39281 0.42303,8.88692 0.50553,9.98692 0.0825,1.1 -0.0847,7.85 -0.37147,15 l -0.52145,13 4.6679,12.33333 c 2.56734,6.78334 7.24136,18.42344 10.38671,25.8669 3.14535,7.44346 5.99732,14.05395 6.33771,14.68998 0.3404,0.63602 6.75428,7.06428 14.25308,14.28502 l 13.63417,13.12862 12.25243,1.60516 c 6.73882,0.88283 12.62433,1.63946 13.07889,1.6814 0.45455,0.0419 8.6889,-0.67915 18.29854,-1.60242 z m 5.62544,-30.15466 c 4.67228,-5.40833 8.90723,-10.3262 9.41101,-10.9286 0.50377,-0.60239 2.40615,-6.75239 4.2275,-13.66666 l 3.31155,-12.5714 -0.40322,-3.72569 c -0.22177,-2.04913 -1.1429,-6.69913 -2.04697,-10.33333 -0.90406,-3.63421 -1.66268,-7.05765 -1.68582,-7.60765 -0.0231,-0.55 -0.47975,-2.57106 -1.01471,-4.49124 -0.53495,-1.92018 -0.76869,-3.82124 -0.51942,-4.22458 0.24928,-0.40333 -0.003,-1.83227 -0.55926,-3.17543 -0.55686,-1.34314 -1.48252,-4.09208 -2.05702,-6.10875 -0.57449,-2.01667 -1.97766,-7.64231 -3.11815,-12.50143 l -2.07362,-8.83477 -5.01475,-11.16523 c -2.75812,-6.14088 -5.58314,-11.78457 -6.27783,-12.54154 -0.69469,-0.75696 -1.26307,-1.99464 -1.26307,-2.75038 0,-0.75574 -0.74622,-3.0614 -1.65826,-5.1237 -0.99113,-2.24112 -2.07614,-3.74962 -2.69697,-3.74962 -0.57129,0 -1.7682,-0.72948 -2.6598,-1.62108 -0.8916,-0.8916 -2.67796,-2.42721 -3.9697,-3.41246 -1.29173,-0.98526 -2.34861,-1.61815 -2.34861,-1.40643 0,0.21173 -1.46856,-0.35267 -3.26349,-1.25421 -1.79491,-0.90153 -4.01991,-1.63915 -4.94444,-1.63915 -0.92453,0 -1.79253,-0.33471 -1.9289,-0.74381 -0.13636,-0.4091 -5.3144,3.4159 -11.50675,8.5 l -11.25881,9.24381 -4.78965,18.72191 -4.78965,18.72192 -0.49326,18.83368 -0.49326,18.83368 5.47454,12.57002 5.47455,12.57002 9.75956,13.14152 9.75956,13.14152 12.66667,4.51386 c 6.96667,2.48262 13.02413,4.5374 13.46104,4.5662 0.4369,0.0288 4.61714,-4.37266 9.28941,-9.781 z"
       id="path191"
       sodipodi:nodetypes="ccsssscccccssscsscccsssssssssssssscsssssssssscsscccccsssssssssssssccsscccsscssccscsssssssscssssssssssscsssssssscsscsssssssssssssssssssssscssscsssssscsscccccsssssssssssscssssssssssssssssssscssssscsssssssssssscssscsssscsssssscssssscsscsssssssssssscccccccccsss" /><path
       style="fill:#000000;stroke:#000000;stroke-width:0.667;stroke-dasharray:none;stroke-opacity:1"
       d="m 580.18857,1060.967 c -9.49026,-1.9975 -17.93738,-4.0789 -18.77143,-4.6254 -0.83405,-0.5465 -2.88523,-1.3383 -4.55819,-1.7596 -1.67294,-0.4212 -3.38753,-1.1825 -3.81018,-1.6918 -0.42265,-0.5093 -1.118,-0.9259 -1.54522,-0.9259 -0.42722,0 -2.17848,-1.425 -3.8917,-3.1667 l -3.11492,-3.1667 -1.11223,-4.3333 -1.11222,-4.3333 0.40815,-6.2753 c 0.27032,-4.1561 0.82849,-7.0827 1.65291,-8.6666 0.68463,-1.3153 1.45391,-3.7903 1.70953,-5.5 0.25561,-1.7096 1.1914,-4.5596 2.07952,-6.3333 0.88812,-1.7737 1.99866,-3.7008 2.46788,-4.2826 0.4692,-0.5818 1.50838,-1.4068 2.30928,-1.8333 0.80089,-0.4266 3.28552,-0.7756 5.52141,-0.7756 2.23588,0 5.0306,0.4082 6.21049,0.9071 1.17989,0.4988 3.64526,2.3893 5.47859,4.201 1.83333,1.8117 3.83873,3.4866 4.4564,3.7219 0.61767,0.2354 1.44347,1.0268 1.83513,1.7585 l 0.71207,1.3306 -0.7252,0.4482 c -0.39887,0.2465 -1.67467,-0.01 -2.83513,-0.5679 -1.16047,-0.5588 -3.34094,-1.3758 -4.84551,-1.8155 l -2.73557,-0.7995 -3.09776,1.3703 -3.09776,1.3703 v 4.7042 c 0,2.5873 0.25352,4.7041 0.56339,4.7041 0.30986,0 1.99783,1.9538 3.75103,4.3418 1.94998,2.6561 3.83737,4.5049 4.86106,4.7618 0.92038,0.231 6.65745,-0.067 12.74898,-0.6627 6.09154,-0.5955 18.87549,-1.2724 28.40889,-1.5042 l 17.3333,-0.4215 8.3333,-1.5739 8.3334,-1.5739 4.1325,-4.517 4.1325,-4.517 3.7044,-8.3334 3.7045,-8.3333 -0.01,-6.67932 -0.01,-6.67931 -4.7284,-7.65402 c -2.6007,-4.20971 -4.8413,-7.76964 -4.9792,-7.91095 -0.1379,-0.14132 -3.935,-1.10375 -8.4382,-2.13875 l -8.1875,-1.88181 -14.5673,-0.0279 -14.5673,-0.0279 -13.67935,-1.67676 c -7.52366,-0.92222 -13.8684,-1.77739 -14.0994,-1.90039 -0.231,-0.12299 -4.27933,-2.58393 -8.99624,-5.46873 l -8.57624,-5.24511 -8.36944,-10.35451 c -4.60319,-5.69498 -8.60797,-10.67209 -8.89951,-11.06026 -0.29153,-0.38816 -1.48181,-6.42004 -2.64505,-13.40418 l -2.11499,-12.69842 3.54115,-11.92916 3.54116,-11.92915 5.51548,-11.09115 5.51548,-11.09115 8.86744,-7.18343 c 4.87708,-3.9509 9.1947,-7.432 9.5947,-7.7358 0.4,-0.3038 11.05746,-2.0798 23.6832,-3.94668 l 22.95581,-3.39431 21.2305,3.70622 c 11.6767,2.03843 21.5693,3.9695 21.9835,4.29127 0.4142,0.32178 5.5947,4.51982 11.5123,9.32898 l 10.7593,8.74394 6.8075,12.69187 6.8076,12.69187 -0.2385,8.49418 -0.2384,8.49419 -3.5121,5.16181 -3.512,5.16181 -2.7828,1.41965 -2.7828,1.41966 -6.7002,-0.33536 c -4.0666,-0.20355 -7.6942,-0.76793 -9.2292,-1.43587 -1.3909,-0.60527 -2.6878,-1.61602 -2.882,-2.2461 -0.1941,-0.63008 -0.631,-1.66653 -0.971,-2.30322 -0.3398,-0.63669 -0.618,-1.73715 -0.618,-2.44547 0,-0.70832 0.1758,-1.74577 0.3905,-2.30544 0.2148,-0.55966 1.9521,-2.1966 3.8607,-3.63762 1.9086,-1.44104 4.433,-2.8315 5.6096,-3.08992 1.1766,-0.25843 2.1392,-0.31044 2.1392,-0.1156 0,0.19486 -1.35,1.28311 -3,2.41834 l -3,2.06405 v 2.03383 2.03384 l 1.9762,1.84604 c 1.087,1.01533 2.9244,2.03569 4.0834,2.26748 1.1589,0.23178 2.9519,0.42142 3.9844,0.42142 1.0326,0 2.0628,-0.3 2.2894,-0.66666 0.2266,-0.36667 0.9576,-0.66667 1.6244,-0.66667 0.6668,0 1.5489,-0.40559 1.9603,-0.90131 l 0.7481,-0.90131 -0.7366,-2.11276 c -0.405,-1.16202 -1.3049,-2.41699 -1.9997,-2.78881 -0.7044,-0.377 -1.2632,-1.38814 -1.2632,-2.28584 0,-0.88539 -0.9057,-2.95172 -2.0125,-4.59185 -1.107,-1.64013 -2.232,-3.08017 -2.5,-3.20009 -0.2682,-0.11992 -2.8374,-2.82988 -5.7096,-6.02214 l -5.222,-5.80412 -9.1368,-5.34163 -9.1368,-5.34163 -27.2328,-1.66078 -27.23285,-1.66077 -8.24166,7.73867 c -4.53294,4.25626 -8.24627,7.9192 -8.25194,8.13985 -0.007,0.22065 -0.73026,4.83301 -1.6104,10.24967 l -1.60013,9.84849 1.85353,9.90252 c 1.0194,5.44639 2.107,10.31457 2.41687,10.81818 0.3098,0.50361 2.45233,3.36461 4.76113,6.35779 l 4.19787,5.44212 2.49567,0.39022 c 1.37266,0.21462 7.65461,0.98569 13.96001,1.7135 6.3054,0.7278 17.4054,1.92205 24.6667,2.65387 7.2613,0.73183 14.2504,1.63679 15.5313,2.01104 1.2809,0.37425 3.2511,0.68045 4.3782,0.68045 1.2376,0 5.9926,2.01196 12.0044,5.07934 5.4753,2.79364 10.4163,5.48234 10.9799,5.9749 0.5636,0.49256 4.2363,5.63186 8.1615,11.42066 l 7.1368,10.5251 1.3794,14.66667 1.3794,14.66663 -3.3505,10.6409 -3.3506,10.6408 -12.8778,12.8778 -12.8778,12.8778 -12.1254,3.2514 -12.1254,3.2515 -18.8539,0.3805 -18.85381,0.3805 -17.255,-3.6318 z m 55.79109,-2.4204 c 1.3949,-0.3593 3.7949,-0.4646 5.3334,-0.234 l 2.7972,0.4191 2.6666,-1.8346 c 1.4667,-1.0091 4.6148,-2.3831 6.9957,-3.0532 l 4.329,-1.2186 11.17,-11.1555 11.17,-11.1555 1.0993,-3.3417 c 0.6046,-1.8379 1.3102,-3.4917 1.5679,-3.675 0.2577,-0.1833 0.8135,-0.9886 1.235,-1.7895 0.4215,-0.8009 0.7665,-2.4782 0.7665,-3.7274 0,-1.2492 0.4278,-3.6928 0.9507,-5.4303 l 0.9507,-3.1591 -1.2544,-13.43676 -1.2544,-13.43676 -6.586,-9.67676 -6.586,-9.67676 -3.9073,-2.10474 c -2.1491,-1.1576 -4.2237,-2.5336 -4.6103,-3.05777 -0.3867,-0.52417 -1.303,-1.26361 -2.0364,-1.6432 -0.7333,-0.3796 -3.1333,-1.29449 -5.3333,-2.03309 -2.2,-0.73861 -5.4013,-1.70939 -7.114,-2.15729 -1.7127,-0.4479 -3.4194,-0.62563 -3.7926,-0.39495 -0.3733,0.23068 -2.9422,-0.18716 -5.7087,-0.92854 -2.7666,-0.74137 -6.0099,-1.29606 -7.2074,-1.23262 -1.1975,0.0634 -7.0602,-0.12847 -13.0282,-0.42645 -5.968,-0.29799 -10.6703,-0.72237 -10.4496,-0.94308 0.2207,-0.22071 -3.9936,-0.90505 -9.3652,-1.52077 -5.37162,-0.61572 -10.17782,-1.27729 -10.68042,-1.47017 -0.50267,-0.19288 -3.48973,-3.77999 -6.63793,-7.97135 l -5.72407,-7.62066 -1.31533,-6.78555 c -0.84134,-4.33998 -1.33,-9.71856 -1.35594,-14.92357 -0.0227,-4.47591 0.42587,-11.13386 0.99594,-14.79544 l 1.0364,-6.65742 6.7418,-6.51492 c 3.70793,-3.58321 8.04873,-7.41418 9.6462,-8.51326 1.83293,-1.26109 3.83686,-2.03462 5.4318,-2.0967 1.38995,-0.0541 14.89995,0.56523 30.02205,1.37632 l 27.4948,1.4747 7.5052,4.38535 c 4.1519,2.42599 9.2405,6.06154 11.3891,8.13693 2.1362,2.06336 4.3271,4.59253 4.8688,5.62036 0.5417,1.02784 1.5689,2.45284 2.2828,3.16667 0.7138,0.71383 1.7409,1.29788 2.2824,1.29788 0.5416,0 1.4956,0.825 2.1201,1.83333 0.6245,1.00834 2.0047,2.77168 3.0673,3.91856 1.0624,1.14687 2.2414,3.24687 2.62,4.66666 0.3786,1.4198 0.8355,3.85645 1.0153,5.41478 0.1799,1.55834 0.5711,2.83334 0.8695,2.83334 0.2984,0 1.3488,-1.425 2.3342,-3.16667 l 1.7917,-3.16667 -0.3039,-7.78353 -0.3039,-7.78353 -1.0538,-1.05375 c -0.5795,-0.57956 -1.2436,-1.65197 -1.4757,-2.38313 -0.232,-0.73116 -0.7041,-1.32939 -1.049,-1.32939 -0.345,0 -1.1073,-1.2 -1.6942,-2.66667 -0.5868,-1.46666 -1.2608,-2.66666 -1.4978,-2.66666 -0.2369,0 -2.0542,-3.075 -4.0384,-6.83334 l -3.6075,-6.83333 -8.6064,-7 c -4.7335,-3.85 -9.3114,-7.53385 -10.1732,-8.18632 l -1.5669,-1.18633 -20.5973,-3.598 -20.5973,-3.598 -22.249,3.29669 -22.24902,3.29669 -2.72733,2.1543 c -1.5,1.18487 -5.15172,4.1043 -8.11494,6.48764 l -5.38765,4.33333 -5.20835,10.44022 c -2.8646,5.74212 -5.10986,10.54212 -4.98947,10.66667 0.12039,0.12454 -0.42547,1.48949 -1.21302,3.03322 -0.78755,1.54372 -1.43191,3.4155 -1.43191,4.15952 0,0.744 -0.6227,2.93095 -1.38378,4.85988 -0.76108,1.92894 -1.77775,5.30716 -2.25926,7.50716 l -0.87548,4 1.54299,9.11768 c 0.84865,5.01473 1.38835,9.70906 1.19933,10.43185 -0.18901,0.72279 0.006,1.96753 0.4334,2.76611 0.42738,0.79857 1.2262,1.95424 1.77515,2.56815 0.54895,0.61391 1.73235,2.01621 2.62979,3.11621 0.89743,1.1 3.95058,4.87267 6.78478,8.38372 l 5.15308,6.38372 6.98062,4.28294 c 3.83932,2.35562 8.33932,4.94066 9.99998,5.74452 l 3.0194,1.46158 4.67107,0.0384 c 2.56907,0.0211 5.65753,0.32134 6.8632,0.66711 1.20567,0.34578 11.40362,0.81174 22.66222,1.03547 11.2586,0.22372 21.2202,0.66213 22.1368,0.97424 0.9167,0.3121 3.0167,0.88086 4.6667,1.2639 1.65,0.38304 4.5502,1.0357 6.4449,1.45034 1.8947,0.41465 3.8725,1.25494 4.3951,1.8673 0.5226,0.61237 3.1156,4.63498 5.7622,8.93914 l 4.8121,7.82573 0.092,9.17427 0.092,9.17422 -3.482,7.6667 -3.4821,7.6667 -5.6692,6.1233 -5.6691,6.1234 -3.8144,0.7971 c -2.0978,0.4385 -5.6142,1.0787 -7.8142,1.4227 -2.2,0.344 -11.65,0.8809 -21,1.193 -9.35,0.3121 -21.20002,0.9253 -26.33335,1.3626 -5.13334,0.4373 -10.2044,1.2112 -11.26907,1.7198 -1.06467,0.5086 -3.372,0.9247 -5.12733,0.9247 -1.75538,0 -3.37203,-0.2919 -3.59258,-0.6488 -0.22054,-0.3568 -1.43827,-1.141 -2.70605,-1.7426 -1.26778,-0.6016 -2.68003,-1.7735 -3.13835,-2.6042 -0.45831,-0.8307 -2.10829,-3.0734 -3.66662,-4.9839 l -2.83334,-3.4735 v -6.6166 -6.6166 l 2.17728,-2.3758 c 1.24408,-1.3576 3.17283,-2.6099 4.5,-2.922 l 2.32272,-0.5462 -2.74858,-0.068 c -1.51173,-0.038 -4.09928,0.5293 -5.75014,1.2595 -2.01066,0.8894 -3.23086,1.9348 -3.69618,3.1667 -0.38206,1.0114 -1.36741,3.9389 -2.18968,6.5056 -0.82228,2.5667 -1.78818,5.3236 -2.14645,6.1266 -0.36649,0.8214 -0.44139,2.8625 -0.17125,4.6667 0.26409,1.7637 0.53672,4.1067 0.60584,5.2067 0.0691,1.1 0.36432,2.675 0.65599,3.5 0.29167,0.825 0.80238,1.5 1.13493,1.5 0.33254,0 1.06644,0.8931 1.63088,1.9846 0.56444,1.0915 3.02778,3.4997 5.47408,5.3516 2.44631,1.8519 5.21719,3.5492 6.15753,3.7717 0.94033,0.2225 2.1597,0.7623 2.7097,1.1997 0.55,0.4373 2.8,1.2993 5,1.9156 2.2,0.6163 7.45,1.8546 11.66667,2.7519 4.21666,0.8972 9.76666,2.082 12.33333,2.6328 l 4.66662,1.0015 17.3334,-0.3537 c 9.5333,-0.1944 18.4746,-0.6475 19.8694,-1.0067 z m -578.139376,3.6578 -12.26994,-1.6073 -14.98962,-14.4817 c -8.24429,-7.9649 -15.3787,-15.0822 -15.85424,-15.8164 -0.47554,-0.7341 -3.45968,-7.4847 -6.6314195,-15.0014 -3.171742,-7.5167 -7.855812,-19.21667 -10.409062,-26 l -4.64227,-12.33334 1.06448,-28.73436 1.06447,-28.73438 3.26289,-12.16817 3.2629,-12.16818 3.88079,-4.09745 c 2.134432,-2.2536 8.8270815,-9.29368 14.8725415,-15.64463 6.04547,-6.35095 13.33149,-13.62595 16.19116,-16.16667 l 5.1994,-4.61949 h 1.88564 c 1.0371,0 2.2591,-0.45 2.71556,-1 l 0.82992,-1 h 15.44408 15.44408 l 2.38946,1.21822 c 1.3142,0.67001 3.22638,1.87653 4.24928,2.68115 1.0229,0.80462 2.50769,1.62554 3.29953,1.82428 0.79184,0.19874 2.00126,1.31722 2.6876,2.48551 0.68634,1.1683 1.6183,2.49917 2.07102,2.95751 0.45272,0.45833 1.12818,0.83333 1.50104,0.83333 0.37284,0 1.13346,0.825 1.69026,1.83333 0.5568,1.00834 1.4772,2.80834 2.04532,4 0.56814,1.19167 1.13802,2.16667 1.26642,2.16667 0.1284,0 -0.21228,-2.025 -0.75704,-4.5 -0.54478,-2.475 -1.24117,-5.1 -1.54755,-5.83333 -0.30637,-0.73334 -1.95368,-6.88334 -3.66067,-13.66667 -1.707,-6.78333 -3.52831,-13.01095 -4.04737,-13.83915 -0.51905,-0.8282 -2.74747,-9.5282 -4.95203,-19.33333 l -4.0083,-17.82752 -3.06572,-8 c -1.68615,-4.4 -3.44562,-8.75 -3.90994,-9.66667 -0.46432,-0.91666 -1.37406,-3.16666 -2.02165,-5 -0.64759,-1.83333 -3.63812,-8.46736 -6.64561,-14.74229 -3.0075,-6.27493 -5.80582,-11.61763 -6.21849,-11.87268 -0.41267,-0.25504 -0.75031,-1.09395 -0.75031,-1.86424 0,-0.77029 -5.28163,-11.77759 -11.73695,-24.46065 -6.91564,-13.5875 -12.3927,-23.56222 -13.33333,-24.28241 -0.87801,-0.67225 -1.59639,-1.49725 -1.59639,-1.83333 0,-0.36135 12.38965,-0.61106 30.31797,-0.61106 h 30.31796 l 0.94166,1.5 c 0.51791,0.825 3.37522,8.4 6.34957,16.83333 l 5.407916,15.33333 6.99913,31.25743 6.99913,31.25743 6.7e-4,26.40924 6.6e-4,26.40924 2.23363,10.35887 c 1.22849,5.69738 2.56762,10.98293 2.97583,11.74567 0.4082,0.76275 0.57919,1.54981 0.37997,1.74904 -0.19922,0.19922 0.59263,4.66366 1.75967,9.92098 1.16703,5.25732 2.51978,11.50877 3.00609,13.8921 0.48632,2.38334 2.25502,10.29643 3.93046,17.58465 1.67543,7.28823 3.04625,13.92659 3.04625,14.75192 0,0.82533 0.48439,2.65992 1.07643,4.07687 0.59204,1.41695 1.14923,3.17859 1.23819,3.91475 0.089,0.73617 0.99832,5.08848 2.02077,9.67181 1.02245,4.58334 2.07163,8.48334 2.3315,8.66667 0.25987,0.18333 0.49754,1.23333 0.52817,2.33333 0.0306,1.1 0.67426,4.63662 1.4303,7.85916 l 1.37464,5.85914 -0.0495,8.14086 c -0.0273,4.47746 -0.48856,12.49084 -1.02516,17.80751 -0.53661,5.31667 -1.22241,14.52787 -1.524,20.46927 l -0.54834,10.8026 -6.87279,10.7591 -6.87279,10.7592 -4.38704,3.4746 c -2.41286,1.9111 -6.79099,5.3268 -9.72918,7.5904 l -5.34214,4.1158 -17.498056,1.6812 c -9.62392,0.9246 -18.46996,1.6468 -19.65784,1.6049 -1.1879,-0.042 -7.68128,-0.7995 -14.42975,-1.6836 z m 32.72829,-4.5855 17.472076,-1.6787 6.2088,-4.8213 c 3.41484,-2.6517 7.38044,-5.5713 8.81243,-6.488 1.43199,-0.9166 3.10575,-2.7166 3.71947,-4 0.61372,-1.2833 3.33878,-5.7994 6.0557,-10.0357 2.71691,-4.2363 4.93984,-8.231 4.93984,-8.8771 0,-0.6462 0.30145,-1.7381 0.66988,-2.4265 0.36843,-0.6884 0.77589,-5.5437 0.90546,-10.7895 0.12958,-5.2458 0.75857,-16.68129 1.39776,-25.41217 l 1.16216,-15.87433 -0.69054,-4.12567 c -0.37981,-2.26912 -1.0041,-5.62567 -1.38732,-7.459 -0.38322,-1.83333 -1.44955,-4.98333 -2.36963,-7 -0.92008,-2.01667 -2.90024,-9.06667 -4.40035,-15.66667 -1.5001,-6.6 -3.31028,-14.7 -4.0226,-18 -0.71232,-3.3 -2.5079,-11.83534 -3.99018,-18.96743 -1.48227,-7.13209 -2.87256,-13.25468 -3.08954,-13.60576 -0.21698,-0.35109 -0.78686,-2.46574 -1.26639,-4.69923 -0.47953,-2.2335 -0.88241,-5.32984 -0.89529,-6.88075 -0.0129,-1.55091 -0.46756,-3.95091 -1.01041,-5.33333 -0.54285,-1.38242 -1.74853,-5.6635 -2.6793,-9.5135 l -1.6923,-7 0.0248,-28.18779 c 0.0151,-17.17279 -0.23038,-28.66456 -0.62818,-29.40785 -0.35912,-0.67104 -1.24315,-3.88653 -1.9645,-7.14554 -0.72137,-3.25902 -3.73449,-16.72548 -6.69585,-29.92548 -3.08977,-13.77242 -6.566386,-27.4092 -8.158216,-32 -1.52566,-4.4 -3.18319,-8.48358 -3.68338,-9.07462 -0.5002,-0.59104 -1.03614,-2.07558 -1.19096,-3.29898 -0.15484,-1.2234 -0.91564,-3.92002 -1.69069,-5.99248 l -1.40918,-3.7681 -11.31969,-0.0636 c -6.22583,-0.035 -14.87571,-0.40656 -19.22195,-0.82574 l -7.90226,-0.76216 -1.35684,0.72616 c -0.74627,0.39941 -3.02658,0.72618 -5.06735,0.72618 -2.04077,0 -3.71049,0.0962 -3.71049,0.21375 0,0.11757 1.16478,2.89257 2.58842,6.16667 1.42362,3.2741 6.08604,13.07792 10.36093,21.78625 4.27488,8.70833 8.02259,15.83333 8.32825,15.83333 0.30565,0 0.7285,0.86384 0.93966,1.91964 0.21116,1.05581 0.80976,2.34548 1.33022,2.86594 0.52046,0.52046 1.48312,1.98162 2.13924,3.24702 0.65613,1.2654 2.51135,5.30074 4.12271,8.9674 1.61136,3.66667 5.01343,11.49755 7.56016,17.40195 2.54672,5.90441 4.63041,11.04267 4.63041,11.41837 0,0.3757 0.43493,1.04405 0.9665,1.48522 0.53158,0.44116 1.46193,3.02895 2.06744,5.75063 0.60552,2.72168 1.37059,5.11516 1.70017,5.31885 0.32957,0.20368 0.59922,1.38402 0.59922,2.62296 0,1.23894 0.45729,4.29624 1.01619,6.79399 0.55891,2.49775 1.44876,5.59137 1.97746,6.8747 0.5287,1.28333 4.57141,16.45609 8.98381,33.71724 4.412396,17.26115 8.022536,32.01161 8.022536,32.77881 0,0.7672 -0.18209,1.86944 -0.40466,2.44942 -0.22256,0.58 -0.85594,1.05453 -1.40752,1.05453 h -1.00287 l 0.38314,2.16667 c 0.21073,1.19166 2.95031,22.11666 6.08795,46.5 3.13764,24.38333 6.03117,45.84046 6.43006,47.68252 l 0.72524,3.3492 -2.7093,10.40442 c -1.73792,6.67406 -3.45001,11.66066 -4.77524,13.90826 -1.13626,1.9271 -2.98574,5.326 -4.10995,7.553 -1.12421,2.2271 -4.93291,7.4065 -8.463766,11.5098 -3.53086,4.1033 -7.16974,7.7782 -8.08641,8.1663 -0.91667,0.3881 -2.76567,0.8964 -4.10889,1.1294 l -2.44221,0.4238 -9.89112,-3.4849 c -5.44012,-1.9167 -11.19925,-3.9347 -12.79807,-4.4844 l -2.90696,-0.9996 -10.72439,-14.4122 -10.7244,-14.4123 -5.60014,-12.66664 -5.60014,-12.66666 0.49262,-13 c 0.27094,-7.15 0.53444,-16.3 0.58554,-20.33334 0.0621,-4.90329 0.40291,-7.88561 1.0284,-9 0.51452,-0.91666 1.19602,-3.01666 1.51444,-4.66666 0.31843,-1.65 0.84533,-4.8 1.1709,-7 0.32556,-2.2 1.3248,-6.7615 2.22054,-10.13666 0.89573,-3.37515 2.08937,-6.59741 2.65253,-7.16057 0.56315,-0.56315 1.36663,-2.06233 1.78549,-3.33149 0.41886,-1.26917 1.2975,-2.47768 1.95254,-2.68558 0.65504,-0.2079 1.55746,-1.19723 2.0054,-2.19852 0.44794,-1.00128 1.46846,-2.80793 2.26784,-4.01477 0.79938,-1.20684 4.94764,-5.03184 9.21838,-8.5 l 7.76496,-6.30575 h 3.92741 c 2.61121,0 4.80386,0.44684 6.54266,1.33334 1.4384,0.73333 3.37966,1.33333 4.31394,1.33333 0.97666,0 2.05259,0.56672 2.53135,1.33333 0.45797,0.73334 1.11979,1.33334 1.47071,1.33334 0.35092,0 1.51609,0.825 2.58928,1.83333 1.07318,1.00833 2.97506,2.73333 4.22639,3.83333 1.25133,1.1 2.80862,3.4255 3.46064,5.16778 0.65202,1.74229 1.68549,3.54229 2.29659,4 0.61111,0.45772 1.18883,1.31182 1.28382,1.89798 0.095,0.58617 1.85922,4.78617 3.9205,9.33334 2.06128,4.54716 4.345116,10.36757 5.075176,12.93424 0.73006,2.56666 1.86849,6.71932 2.52985,9.22813 0.66135,2.50881 1.37481,4.73381 1.58544,4.94445 0.21064,0.21063 0.38298,0.0501 0.38298,-0.35678 0,-0.40686 -1.64295,-13.37411 -3.65101,-28.8161 -2.00806,-15.442 -3.852626,-28.40259 -4.099056,-28.80132 -0.24642,-0.39872 -3.13545,-4.65647 -6.42006,-9.46166 -3.2846,-4.8052 -6.61502,-9.25505 -7.40094,-9.88856 -0.78591,-0.63352 -2.08622,-1.15852 -2.88958,-1.16667 -0.80336,-0.008 -1.6247,-0.28024 -1.82518,-0.60463 -0.20048,-0.32439 -1.34319,-0.78575 -2.53934,-1.02524 -1.19616,-0.23949 -3.67483,-0.75135 -5.50816,-1.13747 -1.83334,-0.38612 -5.58334,-0.85295 -8.33334,-1.03739 -2.75,-0.18445 -7.77693,-0.12904 -11.17095,0.12314 l -6.17094,0.4585 -4.76063,3.7708 c -2.61835,2.07394 -6.39943,5.3458 -8.40241,7.2708 -2.00298,1.925 -3.88856,3.5 -4.19016,3.5 -0.30162,0 -0.75751,0.675 -1.01309,1.5 -0.25559,0.825 -3.64605,4.8 -7.53436,8.83333 -3.88831,4.03333 -8.65494,8.99763 -10.5925195,11.03176 -1.93758,2.03413 -3.65871,4.4038 -3.82474,5.26593 -0.166032,0.86212 -0.899272,2.12405 -1.629412,2.80428 -0.73014,0.68023 -1.65646,2.45834 -2.05848,3.95134 -0.40203,1.49302 -0.63827,3.8168 -0.52497,5.16396 0.1133,1.34717 -0.35388,4.8494 -1.03818,7.78273 -0.68429,2.93333 -1.67862,6.83922 -2.20962,8.67975 l -0.96544,3.34641 0.35554,7.98692 c 0.19554,4.39281 0.42303,8.88692 0.50552,9.98692 0.0825,1.1 -0.0847,7.85 -0.37146,15 l -0.52145,13 4.66789,12.33333 c 2.56735,6.78334 7.241372,18.42344 10.3867215,25.86694 3.14535,7.4434 5.99732,14.0539 6.33771,14.6899 0.3404,0.6361 6.75428,7.0643 14.25308,14.2851 l 13.63417,13.1286 12.25243,1.6051 c 6.73882,0.8829 12.62433,1.6395 13.07889,1.6814 0.45455,0.042 8.6889,-0.6791 18.29854,-1.6024 z m 5.62544,-30.1546 c 4.672276,-5.4084 8.907226,-10.3262 9.411006,-10.9286 0.50377,-0.6024 2.40615,-6.7524 4.2275,-13.6667 l 3.31155,-12.5714 -0.40322,-3.72569 c -0.22177,-2.04913 -1.1429,-6.69913 -2.04697,-10.33333 -0.90406,-3.63421 -1.66268,-7.05765 -1.68582,-7.60765 -0.0231,-0.55 -0.47975,-2.57106 -1.01471,-4.49124 -0.53495,-1.92018 -0.76869,-3.82124 -0.51942,-4.22458 0.24928,-0.40333 -0.003,-1.83227 -0.55926,-3.17543 -0.55686,-1.34314 -1.48252,-4.09208 -2.05702,-6.10875 -0.57449,-2.01667 -1.97766,-7.64231 -3.11815,-12.50143 l -2.073616,-8.83477 -5.01475,-11.16523 c -2.75812,-6.14088 -5.58314,-11.78457 -6.27783,-12.54154 -0.69469,-0.75696 -1.26307,-1.99464 -1.26307,-2.75038 0,-0.75574 -0.74622,-3.0614 -1.65826,-5.1237 -0.99113,-2.24112 -2.07614,-3.74962 -2.69697,-3.74962 -0.57129,0 -1.7682,-0.72948 -2.6598,-1.62108 -0.8916,-0.8916 -2.67796,-2.42721 -3.9697,-3.41246 -1.29173,-0.98526 -2.34861,-1.61815 -2.34861,-1.40643 0,0.21173 -1.46856,-0.35267 -3.26349,-1.25421 -1.79491,-0.90153 -4.01991,-1.63915 -4.94444,-1.63915 -0.92453,0 -1.79253,-0.33471 -1.9289,-0.74381 -0.13636,-0.4091 -5.3144,3.4159 -11.50675,8.5 l -11.25881,9.24381 -4.78965,18.72191 -4.78965,18.72192 -0.49326,18.83368 -0.49326,18.83368 5.47454,12.57002 5.47455,12.57006 9.75956,13.1415 9.75956,13.1415 12.66667,4.5139 c 6.96667,2.4826 13.02413,4.5374 13.46104,4.5662 0.4369,0.029 4.61714,-4.3727 9.28941,-9.781 z m 155.699506,24.4883 c -9.28586,-2.8828 -17.27762,-5.5687 -17.75946,-5.9686 -0.48183,-0.3998 -3.65628,-5.5325 -7.05433,-11.4058 -3.39805,-5.8733 -6.68601,-10.9505 -7.30658,-11.2826 -0.62057,-0.3321 -3.01169,-4.7373 -5.31361,-9.7893 -2.30192,-5.0521 -4.58436,-9.4907 -5.0721,-9.8638 -0.48773,-0.373 -1.79963,-3.1737 -2.91533,-6.22372 -1.1157,-3.05001 -2.02855,-6.30002 -2.02855,-7.22226 0,-0.92222 -0.5815,-3.97676 -1.29223,-6.78785 -0.77191,-3.05306 -1.60767,-9.99183 -2.07563,-17.23243 l -0.7834,-12.12135 0.7671,-6.59833 0.76709,-6.59832 6.22105,-16.28032 c 3.42157,-8.95418 8.39717,-21.68032 11.05688,-28.28032 2.6597,-6.6 6.42654,-15.9 8.37074,-20.66667 1.9442,-4.76667 5.55393,-13.76667 8.02162,-20 2.4677,-6.23333 4.80809,-11.74583 5.20088,-12.25001 l 0.71416,-0.91666 25.01587,0.4857 c 16.16462,0.31386 25.32713,0.73966 25.89555,1.20344 0.48383,0.39474 0.75548,1.18868 0.60368,1.76429 -0.15181,0.57561 -7.96466,11.99657 -17.36188,25.37991 -9.39723,13.38333 -17.32811,24.63333 -17.62419,25 -0.29608,0.36666 -1.79479,2.46666 -3.33047,4.66666 -1.53568,2.2 -6.83982,12.6605 -11.78698,23.24554 l -8.99483,19.24554 -1.6925,9.02429 -1.69251,9.02428 -0.009,11.73018 -0.009,11.73017 5.36733,12.33334 5.36734,12.3333 4.72389,5.6667 c 2.59814,3.1167 5.4154,6.4893 6.26056,7.4947 l 1.53667,1.8281 12.88081,1.9478 12.88081,1.9478 8.33333,-4.8422 8.33334,-4.8422 4.72699,-8.0515 c 2.59984,-4.4283 7.24984,-13.54812 10.33333,-20.26622 3.08349,-6.7181 7.33223,-14.84982 9.44163,-18.0705 2.1094,-3.22069 4.32123,-6.04227 4.91517,-6.27018 0.60266,-0.23127 2.93419,0.5 5.27583,1.65472 l 4.19594,2.06911 3.92543,5.20028 c 2.15899,2.86016 4.46011,6.62871 5.1136,8.37456 0.65349,1.74585 1.76653,3.48381 2.47343,3.86213 0.7069,0.37832 3.36135,4.83212 5.89879,9.89734 l 4.61353,9.20946 6.21134,7.5516 6.21134,7.5515 11.32272,3.4277 11.32272,3.4277 11.30042,-4.9298 c 6.21523,-2.7114 12.16734,-5.6593 13.22692,-6.5509 1.05958,-0.8915 2.14793,-1.621 2.41855,-1.621 0.27062,0 1.01296,-1.0924 1.64963,-2.4275 0.63667,-1.3351 3.01622,-4.7101 5.28788,-7.5 2.27166,-2.7899 4.49525,-5.5225 4.9413,-6.0725 0.44605,-0.55 3.09527,-3.82932 5.88715,-7.28736 l 5.07614,-6.28736 -0.38568,-2.04598 c -0.21212,-1.12528 -1.88531,-6.6699 -3.71822,-12.32136 -1.83284,-5.65147 -3.33249,-10.90994 -3.33249,-11.68548 0,-0.77554 -1.07237,-3.64774 -2.38304,-6.38264 -1.31067,-2.73492 -2.62866,-5.12646 -2.92887,-5.31453 -0.3002,-0.18808 -2.9144,-6.04196 -5.80932,-13.00863 l -5.2635,-12.66666 -9.46976,-14 c -5.20836,-7.7 -11.57941,-17.24421 -14.1579,-21.20936 -2.57848,-3.96514 -6.81463,-11.46514 -9.41366,-16.66666 -2.59904,-5.20152 -6.40002,-11.85632 -8.44663,-14.78842 l -3.72112,-5.33111 -0.16413,-2.78627 c -0.0943,-1.60073 0.18896,-3.07932 0.6657,-3.47498 0.53757,-0.44614 10.49315,-0.71811 28.267,-0.77221 15.09044,-0.0459 27.73426,0.10011 28.09738,0.32453 0.36312,0.22442 3.65386,6.17473 7.31276,13.22292 l 6.65309,12.81489 2.07332,8.22823 c 1.14033,4.52552 1.8971,8.78346 1.68171,9.46208 -0.21538,0.67862 0.19488,2.38347 0.9117,3.78854 0.71681,1.40508 1.91301,5.54714 2.65822,9.20458 0.7452,3.65745 1.50392,7.3999 1.68603,8.31657 0.18211,0.91667 1.53009,7.23593 2.99551,14.04281 1.46543,6.80688 3.28503,14.80686 4.04356,17.77774 0.75854,2.97088 1.38028,6.55162 1.38165,7.95719 10e-4,1.40558 0.55049,3.45559 1.22027,4.55559 0.66977,1.1 2.34888,6.35889 3.73135,11.68642 l 2.51358,9.68642 -3.41211,12.75277 c -2.19676,8.21035 -4.78002,15.92083 -7.2525,21.64693 l -3.84037,8.8941 -12.1126,16.1055 c -6.66193,8.8579 -12.39331,16.2789 -12.73639,16.4909 -0.34308,0.212 -13.58008,1.1601 -29.41554,2.1068 l -28.79175,1.7213 -5.06755,-3.8789 c -2.78715,-2.1334 -6.89109,-5.2678 -9.11988,-6.9653 -2.22879,-1.6975 -8.96783,-7.4725 -14.97565,-12.8333 -6.00781,-5.3608 -11.10781,-9.7351 -11.33333,-9.7206 -0.22551,0.014 -5.06003,6.6379 -10.74336,14.7188 -5.68333,8.0809 -11.08333,15.5714 -12,16.6455 l -1.66667,1.9529 -17.50687,1.6616 c -9.62878,0.9138 -18.02878,1.6382 -18.66666,1.6098 -0.6379,-0.028 -8.75732,-2.4104 -18.04318,-5.2933 z m 34.8448,-0.3246 c 8.21612,-0.9183 15.57789,-1.9062 16.35949,-2.1953 0.78159,-0.2892 2.82912,-2.3782 4.55008,-4.6422 1.72096,-2.2641 4.17901,-5.6302 5.46234,-7.4802 1.28334,-1.85 3.46898,-4.9347 4.857,-6.8549 1.38802,-1.9201 3.41746,-4.6911 4.50989,-6.1578 1.09242,-1.4667 3.20369,-4.2606 4.69169,-6.2087 l 2.70547,-3.5419 2.45131,1.8445 c 1.34822,1.0145 7.10131,5.9595 12.78464,10.9889 5.68334,5.0294 14.08334,12.0311 18.66667,15.5594 l 8.33333,6.4149 4.01732,-0.3989 c 2.20952,-0.2195 11.04188,-0.4145 19.62748,-0.4335 l 15.61017,-0.034 2.03918,-0.8973 c 1.12156,-0.4936 4.6782,-1.0894 7.90366,-1.3242 l 5.86446,-0.4269 3.71631,-4.9376 c 2.04397,-2.7156 3.95145,-4.9375 4.23885,-4.9375 0.2874,0 1.33232,-1.3818 2.32203,-3.0706 0.98972,-1.6888 4.20717,-6.2638 7.14989,-10.1667 l 5.35041,-7.0961 3.32149,-8 c 1.82681,-4.4 4.058,-10.5288 4.95819,-13.61959 0.90019,-3.09079 2.06515,-6.44815 2.58882,-7.46079 0.52366,-1.01265 1.28351,-4.03382 1.68855,-6.71372 0.40504,-2.6799 0.73394,-5.17254 0.73088,-5.5392 -0.003,-0.36667 -0.20529,-2.16667 -0.44942,-4 -0.24414,-1.83334 -0.87542,-4.38334 -1.40286,-5.66667 -0.52744,-1.28333 -2.31692,-7.43333 -3.97663,-13.66667 -1.65971,-6.23333 -4.35787,-17.93333 -5.99591,-26 -1.63804,-8.06666 -3.7275,-18.11666 -4.64324,-22.33333 -0.91575,-4.21667 -1.94137,-8.86667 -2.27917,-10.33333 -0.3378,-1.46667 -1.66634,-6.71667 -2.95231,-11.66667 l -2.33813,-9 -5.54501,-11.15092 -5.545,-11.15093 -1.66667,-0.6925 c -1.07525,-0.44677 -10.14111,-0.62978 -25.54852,-0.51574 l -23.88186,0.17676 1.89492,2.66666 c 1.0422,1.46667 2.29047,3.56667 2.77392,4.66667 0.48346,1.1 2.03582,3.69706 3.4497,5.77124 1.41388,2.07418 4.08776,6.79435 5.94196,10.48926 1.85419,3.69491 5.67056,10.24786 8.48082,14.56209 2.81026,4.31424 5.56128,8.17758 6.11336,8.58519 0.55208,0.40761 1.07401,1.21965 1.15985,1.80453 0.0859,0.58488 3.69741,6.25138 8.02569,12.59222 l 7.86961,11.5288 3.87228,9.33334 c 2.12975,5.13333 4.15462,9.93333 4.4997,10.66666 0.34509,0.73334 1.85991,4.33334 3.36628,8 1.50636,3.66667 3.01034,7.26667 3.34218,8 0.33184,0.73334 1.1723,2.83334 1.86769,4.66667 0.6954,1.83333 2.52313,7.41746 4.06164,12.40917 l 2.79729,9.07582 -1.08104,3.30508 -1.08104,3.30507 -12.34009,15.28573 c -6.78705,8.4072 -12.84961,15.807 -13.47234,16.4441 -0.62274,0.637 -5.9277,3.2212 -11.7888,5.7427 -5.90432,2.54 -12.15734,4.7758 -14.02198,5.0135 l -3.36544,0.429 -5.38504,-1.6118 c -2.96178,-0.8865 -6.30744,-2.0888 -7.43479,-2.6717 -1.12736,-0.583 -2.76987,-1.06 -3.65003,-1.06 -0.88016,0 -2.55409,-0.3325 -3.71984,-0.7389 l -2.11954,-0.7389 -7.39188,-9.0944 -7.39188,-9.0945 -5.32286,-10.66664 c -3.22215,-6.45698 -7.1392,-13.0958 -9.9252,-16.82173 l -4.60236,-6.15506 -2.72745,-1.39145 c -1.5001,-0.76529 -2.79977,-1.29551 -2.88815,-1.17826 -0.0884,0.11724 -1.16749,1.70178 -2.39802,3.5212 -1.23052,1.81942 -4.88895,9.01942 -8.12982,16 -3.24088,6.98058 -7.7577,15.95904 -10.03738,19.95214 -2.27968,3.9931 -4.89488,7.7234 -5.81154,8.2897 -0.91667,0.5662 -3.76667,2.374 -6.33334,4.0173 -2.56667,1.6433 -6.68835,4.3087 -9.15931,5.9233 l -4.49263,2.9355 -12.50737,-1.0749 c -6.87904,-0.5911 -13.35732,-1.2517 -14.39616,-1.4679 l -1.8888,-0.3931 -7.5918,-9.0784 -7.59181,-9.0783 -2.06661,-5 c -1.13664,-2.75 -2.6354,-6.20004 -3.33057,-7.6667 -0.69517,-1.46667 -2.17393,-4.71964 -3.28611,-7.22882 l -2.02216,-4.56214 v -13.18211 -13.18211 l 1.6789,-8.90974 c 0.92339,-4.90036 1.54234,-9.26562 1.37542,-9.70057 -0.1669,-0.43496 0.10333,-0.94694 0.60052,-1.13773 0.4972,-0.19079 1.79716,-2.24062 2.88881,-4.55517 1.09165,-2.31455 4.13156,-9.00828 6.75536,-14.87495 2.6238,-5.86666 5.6967,-12.4371 6.82867,-14.60096 1.13198,-2.16387 3.38952,-5.83887 5.01677,-8.16667 1.62725,-2.3278 3.21523,-4.23237 3.52883,-4.23237 0.31361,0 0.74932,-0.56436 0.96825,-1.25414 0.21893,-0.68978 0.91415,-1.86543 1.54493,-2.61254 0.63078,-0.74712 1.7135,-2.13222 2.40604,-3.07802 0.69254,-0.94579 2.49254,-3.63406 4,-5.97394 1.50746,-2.33988 4.84083,-7.30907 7.4075,-11.04265 2.56666,-3.73357 5.11666,-7.59465 5.66666,-8.58018 0.55,-0.98552 1.22102,-1.89053 1.49116,-2.01113 0.27014,-0.1206 2.17792,-2.61282 4.23954,-5.53825 2.0616,-2.92543 3.57278,-5.49456 3.35816,-5.70917 -0.21461,-0.21462 -8.7224,-0.50918 -18.9062,-0.65458 l -18.51599,-0.26437 -2.5,0.79953 c -1.375,0.43974 -2.5,1.08128 -2.5,1.42566 0,0.34438 -1.05962,2.34287 -2.35471,4.44109 -1.29944,2.10525 -2.59591,5.28737 -2.8929,7.10048 -0.296,1.80705 -1.78638,6.30596 -3.31196,9.99758 -1.52557,3.69162 -2.77376,6.91455 -2.77376,7.16208 0,0.24753 -1.95,4.44837 -4.33334,9.33522 -2.38333,4.88684 -4.33333,9.52479 -4.33333,10.30655 0,0.78176 -0.28557,2.1105 -0.63461,2.95275 -0.34904,0.84225 -4.08436,10.83137 -8.30071,22.19803 l -7.66609,20.66667 -0.68803,5.55931 -0.68803,5.55932 0.70378,10.44068 c 0.38708,5.74238 1.28202,12.74068 1.98874,15.55176 0.70672,2.8111 1.28495,5.83152 1.28495,6.71206 0,0.88054 3.02239,8.18056 6.71643,16.22224 3.69403,8.0417 7.10204,15.0713 7.57334,15.6213 0.47131,0.55 3.75812,5.9948 7.30404,12.0995 l 6.44712,11.0996 1.81286,0.4379 c 0.99708,0.2408 4.06288,1.3139 6.81288,2.3846 2.75,1.0707 9.2,3.2799 14.33333,4.9094 5.13333,1.6294 9.86351,2.9865 10.51151,3.0158 0.64799,0.029 7.90045,-0.6981 16.11658,-1.6164 z m 562.16894,-6.4894 c -1.6422,-3.0292 -5.1226,-9.787 -7.7341,-15.0174 l -4.7483,-9.5097 -1.6573,-12.0483 c -1.1209,-8.1486 -1.6571,-15.10442 -1.6565,-21.49028 4e-4,-6.01562 0.381,-11.25642 1.0484,-14.44199 0.5763,-2.75 1.2701,-6.35 1.5418,-8 0.2716,-1.65 0.9966,-3.9538 1.6109,-5.11955 0.7146,-1.35614 0.9716,-2.84616 0.7135,-4.13691 l -0.4035,-2.01735 1.0763,-1.07638 c 0.592,-0.59201 1.2299,-1.8804 1.4176,-2.8631 0.1876,-0.98269 1.5761,-5.38671 3.0856,-9.78671 1.5095,-4.4 2.7815,-8.59064 2.8266,-9.31253 0.045,-0.72189 -0.368,-1.37782 -0.918,-1.45763 -0.55,-0.0798 -2.3944,-0.32795 -4.0985,-0.55143 l -3.0985,-0.40632 -0.792,-1.91219 c -0.4356,-1.0517 -1.5914,-2.24733 -2.5682,-2.65695 -0.9769,-0.40963 -5.0762,-4.2308 -9.1095,-8.49151 -4.0333,-4.2607 -7.9333,-8.32782 -8.6667,-9.03804 -0.7333,-0.71022 -2.915,-2.34841 -4.8482,-3.64043 -1.9333,-1.29202 -4.7544,-2.71506 -6.2691,-3.16232 l -2.7541,-0.81318 -5.2094,1.80385 -5.2094,1.80386 0.756,-1.41593 c 0.4158,-0.77875 1.6411,-2.24399 2.7229,-3.25608 1.0819,-1.01209 2.7087,-2.02633 3.6153,-2.25386 0.9066,-0.22754 3.3514,-0.25928 5.4328,-0.0705 2.2744,0.20624 5.6425,1.21318 8.4406,2.52346 2.5608,1.19916 4.8882,2.13156 5.172,2.072 0.2838,-0.0595 1.6338,0.45136 3,1.13535 1.3662,0.68399 3.6345,1.42168 5.0406,1.63931 1.4062,0.21762 5.5519,1.93421 9.2128,3.81464 l 6.656,3.41898 3.454,0.34976 c 1.8996,0.19236 4.5039,0.0756 5.7872,-0.25941 l 2.3334,-0.60917 0.3668,-3.29351 c 0.2018,-1.81143 3.4219,-11.54351 7.1559,-21.62685 l 6.789,-18.33337 3.6572,-17.47272 c 2.0114,-9.60999 4.2679,-22.23903 5.0145,-28.06451 0.7466,-5.82548 1.2041,-11.46276 1.0166,-12.52728 -0.1875,-1.06452 -0.4513,-3.43549 -0.5863,-5.26882 -0.135,-1.83334 -0.6199,-6.28605 -1.0775,-9.89492 l -0.8321,-6.56158 0.9152,-0.91522 c 0.6049,-0.60483 6.7935,-1.60337 18.248,-2.94432 l 17.33268,-2.0291 9.2429,-5.32743 c 5.0835,-2.93009 9.6705,-5.32743 10.1932,-5.32743 0.5227,0 2.0634,-0.55762 3.4238,-1.23916 1.3604,-0.68153 4.3485,-1.42693 6.6401,-1.65644 2.2917,-0.22951 4.1667,-0.28148 4.1667,-0.11547 0,0.166 -0.697,0.6864 -1.5489,1.15644 -0.8519,0.47005 -3.489,2.98483 -5.8604,5.5884 -2.5426,2.79155 -4.6862,5.86873 -5.2245,7.5 -0.5021,1.52143 -1.118,2.76623 -1.3686,2.76623 -0.2506,0 -2.5088,3.825 -5.0182,8.5 -2.5094,4.675 -7.541,13.6 -11.1813,19.83333 -3.6403,6.23333 -10.07678,18.23333 -14.30338,26.66667 l -7.6846,15.33333 -3.2181,11.97318 c -2.093,7.78689 -2.975,12.12351 -2.5225,12.40313 0.4522,0.27949 0.3507,0.77484 -0.29,1.41559 -0.5421,0.54211 -0.9745,1.71071 -0.9607,2.59688 0.014,0.88617 -0.6149,3.25699 -1.397,5.26847 -0.782,2.0115 -1.4218,4.6902 -1.4218,5.95268 0,1.26247 -0.3031,3.2167 -0.6736,4.34274 -0.3704,1.12603 -1.2028,4.29733 -1.8498,7.04733 l -1.1762,5 13.0165,-0.36069 13.01638,-0.36068 5.3334,-1.55459 c 2.9333,-0.85502 7.8833,-2.83075 11,-4.39052 3.1166,-1.55977 7.3798,-3.37394 9.4736,-4.03149 l 3.8069,-1.19556 2.7734,0.83092 c 1.5253,0.457 4.0104,1.98484 5.5224,3.3952 1.5119,1.41035 2.5389,2.77442 2.2821,3.03124 -0.2569,0.25683 -1.8815,-0.46996 -3.6104,-1.6151 -1.7288,-1.14514 -3.4668,-2.07962 -3.8623,-2.07662 -0.3955,0.003 -2.1919,0.85221 -3.9919,1.88716 l -3.2728,1.88172 -3.3939,5.71816 c -1.8666,3.14498 -5.3255,7.92076 -7.6865,10.61283 -2.361,2.69208 -4.9622,5.42276 -5.7805,6.06818 -0.8802,0.69425 -5.0852,1.85137 -10.29638,2.83333 l -8.8086,1.65984 h -13.0027 c -8.0935,0 -16.2558,-0.41228 -21.6189,-1.09199 -4.9991,-0.63355 -8.8495,-0.84346 -9.1719,-0.5 -0.3056,0.3256 -2.6736,6.52544 -5.2621,13.77743 -2.5891,7.25356 -5.2067,15.95124 -5.8183,19.33333 -0.6116,3.38135 -1.8616,7.9479 -2.7776,10.1479 l -1.6656,4 0.3968,5.66667 c 0.2182,3.11666 0.6915,7.91666 1.0517,10.66666 0.3601,2.75 0.668,7.55364 0.6841,10.67474 l 0.029,5.6748 1.61,5.0724 c 0.8854,2.7899 2.9462,7.8863 4.5794,11.3253 1.6332,3.439 3.4836,7.6778 4.1118,9.4194 0.6284,1.7417 1.3851,3.1667 1.6817,3.1667 0.2966,0 0.7133,0.6935 0.9261,1.5411 0.2127,0.8476 1.0854,2.3541 1.9393,3.3479 l 1.5526,1.8068 12.6329,0.2764 c 6.9481,0.1521 13.2329,0.2845 13.9662,0.2943 0.7334,0.01 4.6143,-0.1961 8.6243,-0.4576 l 7.2909,-0.4756 -5.2292,-4.6666 c -2.8761,-2.5667 -5.7347,-5.4933 -6.3525,-6.5037 -0.6178,-1.0103 -2.3208,-3.1103 -3.7843,-4.6666 -1.4636,-1.5564 -3.5208,-3.4297 -4.5714,-4.1631 -1.0508,-0.7333 -4.3255,-3.7159 -7.2774,-6.6279 l -5.367,-5.2946 -5.1244,-8.3042 -5.1245,-8.3042 -1.7809,-7.65817 -1.7809,-7.65817 1.9748,-9.74303 c 1.0861,-5.35867 2.6291,-11.54303 3.4288,-13.74303 0.7997,-2.2 1.7809,-4.65026 2.1804,-5.44501 0.3996,-0.79476 1.9641,-5.11343 3.4766,-9.59706 1.56,-4.62418 3.2496,-8.46579 3.9043,-8.87703 l 1.1542,-0.72497 1.1124,1.11241 1.1124,1.11242 -1.168,4.20962 c -0.6424,2.31529 -2.9386,8.87834 -5.1025,14.58455 -2.6338,6.9451 -4.4664,13.14394 -5.5434,18.75091 l -1.6088,8.37596 1.7878,7.2491 1.7879,7.2491 5.3181,8.6017 5.3181,8.6017 17.6721,17.226 17.6722,17.2261 -0.7391,1.1722 -0.7391,1.1723 -26.0361,0.1743 -26.0361,0.1744 -2.9859,-5.5077 z m 59.24778,-118.81675 c 1.2844,-0.53665 2.7349,-1.36165 3.2232,-1.83333 0.4884,-0.47168 1.6029,-1.46106 2.4767,-2.19862 0.8737,-0.73757 2.9387,-2.19714 4.5887,-3.24348 1.65,-1.04634 3.825,-3.1818 4.8333,-4.74546 1.0083,-1.56365 1.8333,-3.14699 1.8333,-3.51852 0,-0.37154 0.45,-0.8482 1,-1.05926 0.55,-0.21106 1,-1.11106 1,-2 0,-0.88894 -0.4745,-1.79836 -1.0545,-2.02092 -0.58,-0.22257 -1.4787,-0.40466 -1.9972,-0.40466 -0.5185,0 -3.2653,1.07287 -6.1042,2.38416 -2.8389,1.3113 -5.3212,2.64253 -5.5164,2.9583 -0.1951,0.31576 -1.2487,0.94608 -2.3413,1.4007 l -1.9864,0.82658 -18.66668,0.11581 c -10.2666,0.0637 -22.5666,0.33 -27.3333,0.59177 -4.7667,0.26178 -9.988,0.56946 -11.603,0.68374 l -2.9364,0.20779 -3.634,-1.60711 c -1.9986,-0.88392 -4.0732,-2.04646 -4.6102,-2.58343 -0.537,-0.53697 -1.7488,-1.17018 -2.6929,-1.40713 -0.9441,-0.23696 -2.2454,-0.95969 -2.8917,-1.60608 -0.6464,-0.64638 -2.8273,-1.54494 -4.8464,-1.99679 -2.019,-0.45185 -4.1468,-0.63898 -4.7282,-0.41585 -0.5815,0.22313 -1.0572,1.1051 -1.0572,1.95995 0,0.85484 0.36,1.91425 0.8,2.35425 0.44,0.44 1.2838,0.8 1.8752,0.8 0.5914,0 1.8814,0.84142 2.8667,1.86982 0.9853,1.02839 1.7914,2.24329 1.7914,2.69977 0,0.45648 0.4252,1.65215 0.9448,2.65705 0.5663,1.09515 2.3023,2.4629 4.3333,3.41419 1.8638,0.8729 3.3886,1.83581 3.3886,2.1398 0,0.30399 0.45,0.55271 1,0.55271 0.55,0 1,0.25444 1,0.56542 0,0.31097 1.196,1.10473 2.6577,1.7639 l 2.6578,1.19848 4.5089,-0.53128 c 2.4799,-0.29222 7.7846,-0.49522 11.7884,-0.45114 4.0037,0.0441 7.5887,0.38941 7.9667,0.76739 0.4363,0.43639 6.973,0.68723 17.9086,0.68723 h 17.2214 z m -32.19288,-17.49853 c -0.1694,-0.44419 0.2152,-3.29419 0.8547,-6.33334 0.6396,-3.03914 1.5323,-5.97572 1.9838,-6.52572 0.4515,-0.55 1.4761,-2.30267 2.2769,-3.89483 0.8404,-1.67104 1.8239,-5.61672 2.3264,-9.33333 0.4788,-3.54118 1.0447,-6.8885 1.2576,-7.4385 0.2128,-0.55 0.7154,-4.43677 1.1168,-8.63726 0.4014,-4.2005 0.9806,-7.9505 1.2872,-8.33334 0.3066,-0.38284 0.7699,-1.74607 1.0296,-3.0294 0.2596,-1.28334 4.6093,-10.43334 9.6658,-20.33334 5.0566,-9.9 11.05638,-21.15 13.33288,-25 2.2764,-3.85 4.7002,-7.52622 5.386,-8.16938 0.686,-0.64315 1.551,-2.29776 1.9224,-3.67691 0.3714,-1.37915 1.6576,-3.97671 2.8583,-5.77235 1.2007,-1.79565 2.7065,-4.04104 3.3462,-4.98976 0.6397,-0.94871 1.1647,-2.38993 1.1667,-3.20271 0,-0.81277 1.0535,-2.52777 2.3368,-3.81111 1.2834,-1.28333 2.3334,-2.94333 2.3334,-3.68889 v -1.35555 h -1.6667 c -0.9167,0 -1.6667,0.29623 -1.6667,0.6583 0,0.36207 -1.2486,1.44653 -2.7747,2.40992 -1.5261,0.96338 -5.0511,2.87308 -7.8333,4.24376 l -5.0586,2.49214 -11.66668,1.17455 c -6.4167,0.64601 -13.1667,1.36508 -15,1.59794 l -3.3334,0.42339 0.2231,12.66666 c 0.1227,6.96667 -0.1019,16.89987 -0.4992,22.07379 -0.3973,5.17391 -1.4859,12.78919 -2.4189,16.92283 -0.9332,4.13365 -2.1399,8.37286 -2.6816,9.42047 -0.5418,1.04761 -0.8185,2.58233 -0.6151,3.41049 0.2035,0.82817 -0.3677,4.80576 -1.2692,8.83909 -0.9015,4.03333 -2.5861,9.58333 -3.7435,12.33333 -1.1573,2.75 -2.3329,5.90706 -2.6123,7.01569 -0.2795,1.10862 -0.8742,2.69982 -1.3217,3.53599 -0.4476,0.83618 -1.223,2.77912 -1.7232,4.31766 -0.5002,1.53853 -1.9759,5.34733 -3.2794,8.464 l -2.3699,5.66666 -0.011,3.4435 -0.011,3.44348 8.5801,-0.11015 8.58,-0.11016 -0.3082,-0.80761 z"
       id="path981" /><path
       style="fill:#000000;stroke:#000000;stroke-width:0.667;stroke-dasharray:none;stroke-opacity:1"
       d="m 424.05921,484.77476 c -9.28586,-2.88283 -17.27762,-5.56869 -17.75946,-5.96859 -0.48183,-0.39988 -3.65628,-5.53251 -7.05433,-11.40583 -3.39805,-5.87332 -6.68601,-10.9505 -7.30658,-11.28262 -0.62057,-0.33211 -3.01169,-4.73732 -5.31361,-9.78933 -2.30192,-5.05202 -4.58436,-9.4907 -5.0721,-9.86374 -0.48773,-0.37304 -1.79963,-3.17372 -2.91533,-6.22374 -1.1157,-3.05001 -2.02855,-6.30002 -2.02855,-7.22226 0,-0.92222 -0.5815,-3.97676 -1.29223,-6.78785 -0.77191,-3.05306 -1.60767,-9.99183 -2.07563,-17.23243 l -0.7834,-12.12135 0.7671,-6.59833 0.76709,-6.59832 6.22105,-16.28032 c 3.42157,-8.95418 8.39717,-21.68032 11.05688,-28.28032 2.6597,-6.6 6.42654,-15.9 8.37074,-20.66667 1.9442,-4.76667 5.55393,-13.76667 8.02162,-20 2.4677,-6.23333 4.80809,-11.74583 5.20088,-12.25001 l 0.71416,-0.91666 25.01587,0.4857 c 16.16462,0.31386 25.32713,0.73966 25.89555,1.20344 0.48383,0.39474 0.75548,1.18868 0.60368,1.76429 -0.15181,0.57561 -7.96466,11.99657 -17.36188,25.37991 -9.39723,13.38333 -17.32811,24.63333 -17.62419,25 -0.29608,0.36666 -1.79479,2.46666 -3.33047,4.66666 -1.53568,2.2 -6.83982,12.6605 -11.78698,23.24554 l -8.99483,19.24554 -1.6925,9.02429 -1.69251,9.02428 -0.009,11.73018 -0.009,11.73017 5.36733,12.33334 5.36734,12.33333 4.72389,5.66667 c 2.59814,3.11666 5.4154,6.48929 6.26056,7.49472 l 1.53667,1.82806 12.88081,1.94784 12.88081,1.94783 8.33333,-4.84224 8.33334,-4.84224 4.72699,-8.05148 c 2.59984,-4.42831 7.24984,-13.54811 10.33333,-20.26621 3.08349,-6.7181 7.33223,-14.84982 9.44163,-18.0705 2.1094,-3.22069 4.32123,-6.04227 4.91517,-6.27018 0.60266,-0.23127 2.93419,0.5 5.27583,1.65472 l 4.19594,2.06911 3.92543,5.20028 c 2.15899,2.86016 4.46011,6.62871 5.1136,8.37456 0.65349,1.74585 1.76653,3.48381 2.47343,3.86213 0.7069,0.37832 3.36135,4.83212 5.89879,9.89734 l 4.61353,9.20949 6.21134,7.55153 6.21134,7.55152 11.32272,3.42773 11.32272,3.42773 11.30042,-4.92982 c 6.21523,-2.7114 12.16734,-5.6593 13.22692,-6.55088 1.05958,-0.89157 2.14793,-1.62104 2.41855,-1.62104 0.27062,0 1.01296,-1.09238 1.64963,-2.4275 0.63667,-1.33511 3.01622,-4.71011 5.28788,-7.5 2.27166,-2.78988 4.49525,-5.5225 4.9413,-6.0725 0.44605,-0.55 3.09527,-3.82932 5.88715,-7.28736 l 5.07614,-6.28736 -0.38568,-2.04598 c -0.21212,-1.12528 -1.88531,-6.6699 -3.71822,-12.32136 -1.83284,-5.65147 -3.33249,-10.90994 -3.33249,-11.68548 0,-0.77554 -1.07237,-3.64774 -2.38304,-6.38264 -1.31067,-2.73492 -2.62866,-5.12646 -2.92887,-5.31453 -0.3002,-0.18808 -2.9144,-6.04196 -5.80932,-13.00863 l -5.2635,-12.66666 -9.46976,-14 c -5.20836,-7.7 -11.57941,-17.24421 -14.1579,-21.20936 -2.57848,-3.96514 -6.81463,-11.46514 -9.41366,-16.66666 -2.59904,-5.20152 -6.40002,-11.85632 -8.44663,-14.78842 l -3.72112,-5.33111 -0.16413,-2.78627 c -0.0943,-1.60073 0.18896,-3.07932 0.6657,-3.47498 0.53757,-0.44614 10.49315,-0.71811 28.267,-0.77221 15.09044,-0.0459 27.73426,0.10011 28.09738,0.32453 0.36312,0.22442 3.65386,6.17473 7.31276,13.22292 l 6.65309,12.81489 2.07332,8.22823 c 1.14033,4.52552 1.8971,8.78346 1.68171,9.46208 -0.21538,0.67862 0.19488,2.38347 0.9117,3.78854 0.71681,1.40508 1.91301,5.54714 2.65822,9.20458 0.7452,3.65745 1.50392,7.3999 1.68603,8.31657 0.18211,0.91667 1.53009,7.23593 2.99551,14.04281 1.46543,6.80688 3.28503,14.80686 4.04356,17.77774 0.75854,2.97088 1.38028,6.55162 1.38165,7.95719 10e-4,1.40558 0.55049,3.45559 1.22027,4.55559 0.66977,1.1 2.34888,6.35889 3.73135,11.68642 l 2.51358,9.68642 -3.41211,12.75277 c -2.19676,8.21035 -4.78002,15.92079 -7.2525,21.64691 l -3.84037,8.89415 -12.1126,16.10543 c -6.66193,8.85799 -12.39331,16.27892 -12.73639,16.49095 -0.34308,0.21204 -13.58008,1.1601 -29.41554,2.1068 l -28.79175,1.72128 -5.06755,-3.8789 c -2.78715,-2.13339 -6.89109,-5.26776 -9.11988,-6.96526 -2.22879,-1.6975 -8.96783,-7.4725 -14.97565,-12.83333 -6.00781,-5.36084 -11.10781,-9.73511 -11.33333,-9.72062 -0.22551,0.0145 -5.06003,6.63797 -10.74336,14.71885 -5.68333,8.08088 -11.08333,15.57133 -12,16.64545 l -1.66667,1.95295 -17.50687,1.66153 c -9.62878,0.91384 -18.02878,1.63826 -18.66666,1.60981 -0.6379,-0.0285 -8.75732,-2.41041 -18.04318,-5.29324 z m 34.8448,-0.32465 c 8.21612,-0.9183 15.57789,-1.90618 16.35949,-2.19532 0.78159,-0.28912 2.82912,-2.37811 4.55008,-4.64219 1.72096,-2.26407 4.17901,-5.63015 5.46234,-7.48018 1.28334,-1.85002 3.46898,-4.93471 4.857,-6.85485 1.38802,-1.92015 3.41746,-4.69118 4.50989,-6.15784 1.09242,-1.46667 3.20369,-4.26056 4.69169,-6.20866 l 2.70547,-3.54198 2.45131,1.84451 c 1.34822,1.01449 7.10131,5.9595 12.78464,10.98893 5.68334,5.02942 14.08334,12.03114 18.66667,15.55936 l 8.33333,6.41496 4.01732,-0.39896 c 2.20952,-0.21944 11.04188,-0.4145 19.62748,-0.43348 l 15.61017,-0.0345 2.03918,-0.89731 c 1.12156,-0.49352 4.6782,-1.08941 7.90366,-1.3242 l 5.86446,-0.42688 3.71631,-4.93756 c 2.04397,-2.71564 3.95145,-4.93754 4.23885,-4.93754 0.2874,0 1.33232,-1.38176 2.32203,-3.07058 0.98972,-1.68883 4.20717,-6.26383 7.14989,-10.16667 l 5.35041,-7.09611 3.32149,-8 c 1.82681,-4.4 4.058,-10.52883 4.95819,-13.61962 0.90019,-3.09079 2.06515,-6.44815 2.58882,-7.46079 0.52366,-1.01265 1.28351,-4.03382 1.68855,-6.71372 0.40504,-2.6799 0.73394,-5.17254 0.73088,-5.5392 -0.003,-0.36667 -0.20529,-2.16667 -0.44942,-4 -0.24414,-1.83334 -0.87542,-4.38334 -1.40286,-5.66667 -0.52744,-1.28333 -2.31692,-7.43333 -3.97663,-13.66667 -1.65971,-6.23333 -4.35787,-17.93333 -5.99591,-26 -1.63804,-8.06666 -3.7275,-18.11666 -4.64324,-22.33333 -0.91575,-4.21667 -1.94137,-8.86667 -2.27917,-10.33333 -0.3378,-1.46667 -1.66634,-6.71667 -2.95231,-11.66667 l -2.33813,-9 -5.54501,-11.15092 -5.545,-11.15093 -1.66667,-0.6925 c -1.07525,-0.44677 -10.14111,-0.62978 -25.54852,-0.51574 l -23.88186,0.17676 1.89492,2.66666 c 1.0422,1.46667 2.29047,3.56667 2.77392,4.66667 0.48346,1.1 2.03582,3.69706 3.4497,5.77124 1.41388,2.07418 4.08776,6.79435 5.94196,10.48926 1.85419,3.69491 5.67056,10.24786 8.48082,14.56209 2.81026,4.31424 5.56128,8.17758 6.11336,8.58519 0.55208,0.40761 1.07401,1.21965 1.15985,1.80453 0.0859,0.58488 3.69741,6.25138 8.02569,12.59222 l 7.86961,11.5288 3.87228,9.33334 c 2.12975,5.13333 4.15462,9.93333 4.4997,10.66666 0.34509,0.73334 1.85991,4.33334 3.36628,8 1.50636,3.66667 3.01034,7.26667 3.34218,8 0.33184,0.73334 1.1723,2.83334 1.86769,4.66667 0.6954,1.83333 2.52313,7.41746 4.06164,12.40917 l 2.79729,9.07582 -1.08104,3.30508 -1.08104,3.30507 -12.34009,15.28577 c -6.78705,8.40716 -12.84961,15.80698 -13.47234,16.44403 -0.62274,0.63705 -5.9277,3.22128 -11.7888,5.74273 -5.90432,2.54004 -12.15734,4.77578 -14.02198,5.0135 l -3.36544,0.42905 -5.38504,-1.61181 c -2.96178,-0.8865 -6.30744,-2.0888 -7.43479,-2.67178 -1.12736,-0.58298 -2.76987,-1.05996 -3.65003,-1.05996 -0.88016,0 -2.55409,-0.3325 -3.71984,-0.73888 l -2.11954,-0.73888 -7.39188,-9.09446 -7.39188,-9.09445 -5.32286,-10.66667 c -3.22215,-6.45698 -7.1392,-13.0958 -9.9252,-16.82173 l -4.60236,-6.15506 -2.72745,-1.39145 c -1.5001,-0.76529 -2.79977,-1.29551 -2.88815,-1.17826 -0.0884,0.11724 -1.16749,1.70178 -2.39802,3.5212 -1.23052,1.81942 -4.88895,9.01942 -8.12982,16 -3.24088,6.98058 -7.7577,15.95904 -10.03738,19.95214 -2.27968,3.99308 -4.89488,7.72344 -5.81154,8.28968 -0.91667,0.56624 -3.76667,2.37402 -6.33334,4.0173 -2.56667,1.64328 -6.68835,4.30876 -9.15931,5.92328 l -4.49263,2.93551 -12.50737,-1.07483 c -6.87904,-0.59116 -13.35732,-1.25174 -14.39616,-1.46796 l -1.8888,-0.39312 -7.5918,-9.07835 -7.59181,-9.07835 -2.06661,-5 c -1.13664,-2.75 -2.6354,-6.2 -3.33057,-7.66666 -0.69517,-1.46667 -2.17393,-4.71964 -3.28611,-7.22882 l -2.02216,-4.56214 v -13.18211 -13.18211 l 1.6789,-8.90974 c 0.92339,-4.90036 1.54234,-9.26562 1.37542,-9.70057 -0.1669,-0.43496 0.10333,-0.94694 0.60052,-1.13773 0.4972,-0.19079 1.79716,-2.24062 2.88881,-4.55517 1.09165,-2.31455 4.13156,-9.00828 6.75536,-14.87495 2.6238,-5.86666 5.6967,-12.4371 6.82867,-14.60096 1.13198,-2.16387 3.38952,-5.83887 5.01677,-8.16667 1.62725,-2.3278 3.21523,-4.23237 3.52883,-4.23237 0.31361,0 0.74932,-0.56436 0.96825,-1.25414 0.21893,-0.68978 0.91415,-1.86543 1.54493,-2.61254 0.63078,-0.74712 1.7135,-2.13222 2.40604,-3.07802 0.69254,-0.94579 2.49254,-3.63406 4,-5.97394 1.50746,-2.33988 4.84083,-7.30907 7.4075,-11.04265 2.56666,-3.73357 5.11666,-7.59465 5.66666,-8.58018 0.55,-0.98552 1.22102,-1.89053 1.49116,-2.01113 0.27014,-0.1206 2.17792,-2.61282 4.23954,-5.53825 2.0616,-2.92543 3.57278,-5.49456 3.35816,-5.70917 -0.21461,-0.21462 -8.7224,-0.50918 -18.9062,-0.65458 l -18.51599,-0.26437 -2.5,0.79953 c -1.375,0.43974 -2.5,1.08128 -2.5,1.42566 0,0.34438 -1.05962,2.34287 -2.35471,4.44109 -1.29944,2.10525 -2.59591,5.28737 -2.8929,7.10048 -0.296,1.80705 -1.78638,6.30596 -3.31196,9.99758 -1.52557,3.69162 -2.77376,6.91455 -2.77376,7.16208 0,0.24753 -1.95,4.44837 -4.33334,9.33522 -2.38333,4.88684 -4.33333,9.52479 -4.33333,10.30655 0,0.78176 -0.28557,2.1105 -0.63461,2.95275 -0.34904,0.84225 -4.08436,10.83137 -8.30071,22.19803 l -7.66609,20.66667 -0.68803,5.55931 -0.68803,5.55932 0.70378,10.44068 c 0.38708,5.74238 1.28202,12.74068 1.98874,15.55176 0.70672,2.8111 1.28495,5.83152 1.28495,6.71206 0,0.88054 3.02239,8.18056 6.71643,16.22226 3.69403,8.0417 7.10204,15.07128 7.57334,15.62128 0.47131,0.55 3.75812,5.99478 7.30404,12.09953 l 6.44712,11.09953 1.81286,0.43791 c 0.99708,0.24085 4.06288,1.31395 6.81288,2.38465 2.75,1.07071 9.2,3.27992 14.33333,4.90936 5.13333,1.62944 9.86351,2.98656 10.51151,3.01582 0.64799,0.0293 7.90045,-0.69813 16.11658,-1.61642 z"
       id="path983"
       sodipodi:nodetypes="sssssssssscccssssscssssssscccccccsscccccssssscsssscccccssssssscsssssscsssscssssccssssssscsscsscssscsssssscsssssssssscssscsscsscsssscsssssssssssscccsscsssssssscsssssscccsssscsssscccsscsssssssscsscccssscccsssssssssssssssssscsssssssssscccsssssscsssss" /><path
       style="fill:#000000;stroke:#000000;stroke-width:0.667;stroke-dasharray:none;stroke-opacity:1"
       d="m 679.31423,486.33605 c -9.4902,-1.99748 -17.9373,-4.07891 -18.7714,-4.6254 -0.834,-0.54649 -2.8852,-1.33828 -4.5582,-1.75954 -1.6729,-0.42125 -3.3875,-1.18258 -3.8102,-1.69184 -0.4226,-0.50927 -1.118,-0.92594 -1.5452,-0.92594 -0.4272,0 -2.1785,-1.425 -3.8917,-3.16666 L 643.62263,471 l -1.1122,-4.33333 -1.1123,-4.33334 0.4082,-6.27522 c 0.2703,-4.15616 0.8285,-7.08277 1.6529,-8.66666 0.6846,-1.3153 1.4539,-3.79027 1.7095,-5.49994 0.2556,-1.70966 1.1914,-4.55966 2.0796,-6.33333 0.8881,-1.77367 1.9986,-3.70085 2.4678,-4.28262 0.4692,-0.58177 1.5084,-1.40677 2.3093,-1.83333 0.8009,-0.42656 3.2855,-0.77556 5.5214,-0.77556 2.2359,0 5.0306,0.40817 6.2105,0.90706 1.1799,0.49888 3.6453,2.38935 5.4786,4.20104 1.8333,1.8117 3.8387,3.48658 4.4564,3.72195 0.6177,0.23538 1.4435,1.02671 1.8351,1.75849 l 0.7121,1.33054 -0.7252,0.44821 c -0.3989,0.24651 -1.6747,-0.009 -2.8351,-0.56784 -1.1605,-0.55883 -3.341,-1.37581 -4.8455,-1.81553 l -2.7356,-0.79947 -3.0978,1.37029 -3.0977,1.37028 v 4.70416 c 0,2.58728 0.2535,4.70415 0.5634,4.70415 0.3098,0 1.9978,1.95381 3.751,4.34181 1.95,2.65602 3.8374,4.50488 4.8611,4.7618 0.9203,0.231 6.6574,-0.0672 12.7489,-0.66272 6.0916,-0.59551 18.8755,-1.2724 28.4089,-1.50422 l 17.3333,-0.42147 8.3333,-1.57391 8.3334,-1.5739 4.1325,-4.51703 4.1325,-4.51703 3.7044,-8.33333 3.7045,-8.33333 -0.01,-6.67932 -0.01,-6.67931 -4.7284,-7.65402 c -2.6007,-4.20971 -4.8413,-7.76964 -4.9792,-7.91095 -0.1379,-0.14132 -3.935,-1.10375 -8.4382,-2.13875 l -8.1875,-1.88181 -14.5673,-0.0279 -14.5673,-0.0279 -13.6793,-1.67676 c -7.5237,-0.92222 -13.8684,-1.77739 -14.0994,-1.90039 -0.231,-0.12299 -4.2794,-2.58393 -8.9963,-5.46873 l -8.5762,-5.24511 -8.3694,-10.35451 c -4.6032,-5.69498 -8.608,-10.67209 -8.8996,-11.06026 -0.2915,-0.38816 -1.4818,-6.42004 -2.645,-13.40418 l -2.115,-12.69842 3.5412,-11.92916 3.5411,-11.92915 5.5155,-11.09115 5.5155,-11.09114 8.8674,-7.18343 c 4.8771,-3.9509 9.1947,-7.432 9.5947,-7.7358 0.4,-0.3038 11.0575,-2.0798 23.6832,-3.94668 l 22.9558,-3.39431 21.2305,3.70622 c 11.6767,2.03843 21.5693,3.9695 21.9835,4.29127 0.4142,0.32178 5.5947,4.51982 11.5123,9.32898 l 10.7593,8.74393 6.8075,12.69187 6.8076,12.69187 -0.2385,8.49418 -0.2384,8.49419 -3.5121,5.16181 -3.512,5.16181 -2.7828,1.41965 -2.7828,1.41966 -6.7002,-0.33536 c -4.0666,-0.20355 -7.6942,-0.76793 -9.2292,-1.43587 -1.3909,-0.60527 -2.6878,-1.61602 -2.882,-2.2461 -0.1941,-0.63008 -0.631,-1.66653 -0.971,-2.30322 -0.3398,-0.63669 -0.618,-1.73715 -0.618,-2.44547 0,-0.70832 0.1758,-1.74577 0.3905,-2.30544 0.2148,-0.55966 1.9521,-2.1966 3.8607,-3.63762 1.9086,-1.44104 4.433,-2.8315 5.6096,-3.08992 1.1766,-0.25843 2.1392,-0.31044 2.1392,-0.1156 0,0.19486 -1.35,1.28311 -3,2.41834 l -3,2.06405 v 2.03383 2.03384 l 1.9762,1.84604 c 1.087,1.01533 2.9244,2.03569 4.0834,2.26748 1.1589,0.23178 2.9519,0.42142 3.9844,0.42142 1.0326,0 2.0628,-0.3 2.2894,-0.66666 0.2266,-0.36667 0.9576,-0.66667 1.6244,-0.66667 0.6668,0 1.5489,-0.40559 1.9603,-0.90131 l 0.7481,-0.90131 -0.7366,-2.11276 c -0.405,-1.16202 -1.3049,-2.41699 -1.9997,-2.78881 -0.7044,-0.377 -1.2632,-1.38814 -1.2632,-2.28584 0,-0.88539 -0.9057,-2.95172 -2.0125,-4.59185 -1.107,-1.64013 -2.232,-3.08017 -2.5,-3.20009 -0.2682,-0.11992 -2.8374,-2.82988 -5.7096,-6.02214 l -5.222,-5.80412 -9.1368,-5.34163 -9.1368,-5.34163 -27.2328,-1.66078 -27.2328,-1.66077 -8.2417,7.73867 c -4.5329,4.25626 -8.2463,7.9192 -8.2519,8.13985 -0.01,0.22065 -0.7303,4.83301 -1.6104,10.24967 l -1.6002,9.84849 1.8536,9.90252 c 1.0194,5.44639 2.107,10.31457 2.4168,10.81818 0.3098,0.50361 2.4524,3.36461 4.7612,6.35779 l 4.1978,5.44212 2.4957,0.39022 c 1.3727,0.21462 7.6546,0.98569 13.96,1.7135 6.3054,0.7278 17.4054,1.92205 24.6667,2.65387 7.2613,0.73183 14.2504,1.63679 15.5313,2.01104 1.2809,0.37425 3.2511,0.68045 4.3782,0.68045 1.2376,0 5.9926,2.01196 12.0044,5.07934 5.4753,2.79364 10.4163,5.48234 10.9799,5.9749 0.5636,0.49256 4.2363,5.63186 8.1615,11.42066 l 7.1368,10.5251 1.3794,14.66667 1.3794,14.66667 -3.3505,10.64082 -3.3506,10.64084 -12.8778,12.87781 -12.8778,12.87781 -12.1254,3.25143 -12.1254,3.25143 -18.8539,0.3805 -18.8538,0.38051 -17.255,-3.63177 z m 55.7911,-2.42041 c 1.3949,-0.35924 3.7949,-0.46454 5.3334,-0.234 l 2.7972,0.41916 2.6666,-1.83467 c 1.4667,-1.00907 4.6148,-2.38301 6.9957,-3.0532 l 4.329,-1.21852 11.17,-11.15552 11.17,-11.15553 1.0993,-3.34168 c 0.6046,-1.83793 1.3102,-3.49168 1.5679,-3.67501 0.2577,-0.18334 0.8135,-0.98862 1.235,-1.78951 0.4215,-0.80089 0.7665,-2.47821 0.7665,-3.72738 0,-1.24916 0.4278,-3.6928 0.9507,-5.43031 l 0.9507,-3.1591 -1.2544,-13.43676 -1.2544,-13.43676 -6.586,-9.67676 -6.586,-9.67676 -3.9073,-2.10474 c -2.1491,-1.1576 -4.2237,-2.5336 -4.6103,-3.05777 -0.3867,-0.52417 -1.303,-1.26361 -2.0364,-1.6432 -0.7333,-0.3796 -3.1333,-1.29449 -5.3333,-2.03309 -2.2,-0.73861 -5.4013,-1.70939 -7.114,-2.15729 -1.7127,-0.4479 -3.4194,-0.62563 -3.7926,-0.39495 -0.3733,0.23068 -2.9422,-0.18716 -5.7087,-0.92854 -2.7666,-0.74137 -6.0099,-1.29606 -7.2074,-1.23262 -1.1975,0.0634 -7.0602,-0.12847 -13.0282,-0.42645 -5.968,-0.29799 -10.6703,-0.72237 -10.4496,-0.94308 0.2207,-0.22071 -3.9936,-0.90505 -9.3652,-1.52077 -5.3716,-0.61572 -10.1778,-1.27729 -10.6804,-1.47017 -0.5027,-0.19288 -3.4897,-3.77999 -6.6379,-7.97135 l -5.7241,-7.62066 -1.3153,-6.78555 c -0.8414,-4.33998 -1.33,-9.71856 -1.356,-14.92357 -0.023,-4.47591 0.4259,-11.13386 0.996,-14.79544 l 1.0364,-6.65742 6.7418,-6.51492 c 3.7079,-3.58321 8.0487,-7.41418 9.6462,-8.51326 1.8329,-1.26109 3.8368,-2.03462 5.4318,-2.0967 1.3899,-0.0541 14.8999,0.56523 30.022,1.37632 l 27.4948,1.4747 7.5052,4.38535 c 4.1519,2.42599 9.2405,6.06154 11.3891,8.13693 2.1362,2.06336 4.3271,4.59253 4.8688,5.62036 0.5417,1.02784 1.5689,2.45284 2.2828,3.16667 0.7138,0.71383 1.7409,1.29788 2.2824,1.29788 0.5416,0 1.4956,0.825 2.1201,1.83333 0.6245,1.00834 2.0047,2.77168 3.0673,3.91856 1.0624,1.14687 2.2414,3.24687 2.62,4.66666 0.3786,1.4198 0.8355,3.85645 1.0153,5.41478 0.1799,1.55834 0.5711,2.83334 0.8695,2.83334 0.2984,0 1.3488,-1.425 2.3342,-3.16667 l 1.7917,-3.16667 -0.3039,-7.78353 -0.3039,-7.78353 -1.0538,-1.05375 c -0.5795,-0.57956 -1.2436,-1.65197 -1.4757,-2.38313 -0.232,-0.73116 -0.7041,-1.32939 -1.049,-1.32939 -0.345,0 -1.1073,-1.2 -1.6942,-2.66667 -0.5868,-1.46666 -1.2608,-2.66666 -1.4978,-2.66666 -0.2369,0 -2.0542,-3.075 -4.0384,-6.83334 L 780.68103,293 l -8.6064,-6.99999 c -4.7335,-3.85 -9.3114,-7.53385 -10.1732,-8.18632 l -1.5669,-1.18633 -20.5973,-3.598 -20.5973,-3.598 -22.249,3.29669 -22.249,3.29669 -2.7273,2.1543 c -1.5,1.18487 -5.1517,4.1043 -8.115,6.48764 l -5.3876,4.33332 -5.2084,10.44022 c -2.8646,5.74212 -5.1098,10.54212 -4.9894,10.66667 0.1204,0.12454 -0.4255,1.48949 -1.2131,3.03322 -0.7875,1.54372 -1.4319,3.4155 -1.4319,4.15952 0,0.744 -0.6227,2.93095 -1.3837,4.85988 -0.7611,1.92894 -1.7778,5.30716 -2.2593,7.50716 l -0.8755,4 1.543,9.11768 c 0.8487,5.01473 1.3884,9.70906 1.1993,10.43185 -0.189,0.72279 0.01,1.96753 0.4334,2.76611 0.4274,0.79857 1.2262,1.95424 1.7752,2.56815 0.5489,0.61391 1.7323,2.01621 2.6298,3.11621 0.8974,1.1 3.9506,4.87267 6.7848,8.38372 l 5.153,6.38372 6.9807,4.28294 c 3.8393,2.35562 8.3393,4.94066 9.9999,5.74452 l 3.0194,1.46158 4.6711,0.0384 c 2.5691,0.0211 5.6575,0.32134 6.8632,0.66711 1.2057,0.34578 11.4036,0.81174 22.6622,1.03547 11.2586,0.22372 21.2202,0.66213 22.1368,0.97424 0.9167,0.3121 3.0167,0.88086 4.6667,1.2639 1.65,0.38304 4.5502,1.0357 6.4449,1.45034 1.8947,0.41465 3.8725,1.25494 4.3951,1.8673 0.5226,0.61237 3.1156,4.63498 5.7622,8.93914 l 4.8121,7.82573 0.092,9.17427 0.092,9.17426 -3.482,7.66666 -3.4821,7.66667 -5.6692,6.12335 -5.6691,6.12336 -3.8144,0.79715 c -2.0978,0.43843 -5.6142,1.07863 -7.8142,1.42266 -2.2,0.34404 -11.65,0.8809 -21,1.19303 -9.35,0.31213 -21.2,0.92529 -26.3333,1.36258 -5.1334,0.4373 -10.2044,1.21121 -11.2691,1.71981 -1.0647,0.5086 -3.372,0.92473 -5.1273,0.92473 -1.7554,0 -3.3721,-0.29198 -3.5926,-0.64883 -0.2205,-0.35685 -1.4383,-1.14105 -2.7061,-1.74265 -1.2677,-0.6016 -2.68,-1.77347 -3.1383,-2.60416 -0.4583,-0.83068 -2.1083,-3.07343 -3.6666,-4.98388 l -2.8334,-3.47355 v -6.61659 -6.61659 l 2.1773,-2.37583 c 1.2441,-1.35752 3.1728,-2.6099 4.5,-2.92196 l 2.3227,-0.54615 -2.7485,-0.0682 c -1.5118,-0.0375 -4.0993,0.52923 -5.7502,1.25949 -2.0106,0.8894 -3.2308,1.9348 -3.6962,3.16666 -0.382,1.01142 -1.3674,3.93894 -2.1896,6.50561 -0.8223,2.56667 -1.7882,5.32364 -2.1465,6.12661 -0.3665,0.8214 -0.4414,2.8625 -0.1712,4.66667 0.264,1.76369 0.5367,4.10672 0.6058,5.20672 0.069,1.1 0.3643,2.675 0.656,3.5 0.2917,0.825 0.8024,1.5 1.1349,1.5 0.3326,0 1.0665,0.89306 1.6309,1.98457 0.5644,1.09152 3.0278,3.49976 5.4741,5.35166 2.4463,1.8519 5.2172,3.54914 6.1575,3.77164 0.9403,0.2225 2.1597,0.76236 2.7097,1.19968 0.55,0.43734 2.8,1.29936 5,1.91563 2.2,0.61627 7.45,1.85461 11.6667,2.75189 4.2166,0.89727 9.7666,2.08205 12.3333,2.63284 l 4.6666,1.00144 17.3334,-0.35361 c 9.5333,-0.19448 18.4746,-0.64753 19.8694,-1.00677 z"
       id="path985"
       sodipodi:nodetypes="cssssscccssssssssssscssscccsssssscccccccccssscccssscssscccccssscssscccccccccsssssssssscccsssssscsssssscccccscscssscssssssssccccccccccccccscsscccssssscccccssssssssssssscscscsssscssssssssssscccsssssscsscccccsscsssssscsscssscsscsssssssscccccccsssssssssscccsscsssssssssssssssscscc" /><path
       style="fill:#000000;stroke:#000000;stroke-width:0.667;stroke-dasharray:none;stroke-opacity:1"
       d="m 821.33098,477.72483 c -1.6422,-3.0292 -5.1226,-9.787 -7.7341,-15.0174 l -4.7483,-9.50972 -1.6573,-12.0483 c -1.1209,-8.1486 -1.6571,-15.10442 -1.6565,-21.49028 4e-4,-6.01562 0.381,-11.25642 1.0484,-14.44199 0.5763,-2.75 1.2701,-6.35 1.5418,-8 0.2716,-1.65 0.9966,-3.9538 1.6109,-5.11955 0.7146,-1.35614 0.9716,-2.84616 0.7135,-4.13691 l -0.4035,-2.01735 1.0763,-1.07638 c 0.592,-0.59201 1.2299,-1.8804 1.4176,-2.8631 0.1876,-0.98269 1.5761,-5.38671 3.0856,-9.78671 1.5095,-4.4 2.7815,-8.59064 2.8266,-9.31253 0.045,-0.72189 -0.368,-1.37782 -0.918,-1.45763 -0.55,-0.0798 -2.3944,-0.32795 -4.0985,-0.55143 l -3.0985,-0.40632 -0.792,-1.91219 c -0.4356,-1.0517 -1.5914,-2.24733 -2.5682,-2.65695 -0.9769,-0.40963 -5.0762,-4.2308 -9.1095,-8.49151 -4.0333,-4.2607 -7.9333,-8.32782 -8.6667,-9.03804 -0.7333,-0.71022 -2.915,-2.34841 -4.8482,-3.64043 -1.9333,-1.29202 -4.7544,-2.71506 -6.2691,-3.16232 l -2.7541,-0.81318 -5.2094,1.80385 -5.2094,1.80386 0.756,-1.41593 c 0.4158,-0.77875 1.6411,-2.24399 2.7229,-3.25608 1.0819,-1.01209 2.7087,-2.02633 3.6153,-2.25386 0.9066,-0.22754 3.3514,-0.25928 5.4328,-0.0705 2.2744,0.20624 5.6425,1.21318 8.4406,2.52346 2.5608,1.19916 4.8882,2.13156 5.172,2.072 0.2838,-0.0595 1.6338,0.45136 3,1.13535 1.3662,0.68399 3.6345,1.42168 5.0406,1.63931 1.4062,0.21762 5.5519,1.93421 9.2128,3.81464 l 6.656,3.41898 3.454,0.34976 c 1.8996,0.19236 4.5039,0.0756 5.7872,-0.25941 l 2.3334,-0.60917 0.3668,-3.29351 c 0.2018,-1.81143 3.4219,-11.54351 7.1559,-21.62685 l 6.789,-18.33337 3.6572,-17.47272 c 2.0114,-9.60999 4.2679,-22.23903 5.0145,-28.06451 0.7466,-5.82548 1.2041,-11.46276 1.0166,-12.52728 -0.1875,-1.06452 -0.4513,-3.43549 -0.5863,-5.26882 -0.135,-1.83334 -0.6199,-6.28605 -1.0775,-9.89492 l -0.8321,-6.56158 0.9152,-0.91522 c 0.6049,-0.60483 6.79353,-1.60337 18.24803,-2.94432 l 17.3327,-2.0291 9.2429,-5.32743 c 5.0835,-2.93009 9.6705,-5.32743 10.1932,-5.32743 0.5227,0 2.0634,-0.55762 3.4238,-1.23916 1.3604,-0.68153 4.3485,-1.42693 6.6401,-1.65644 2.2917,-0.22951 4.1667,-0.28148 4.1667,-0.11547 0,0.166 -0.697,0.6864 -1.5489,1.15644 -0.8519,0.47005 -3.489,2.98483 -5.8604,5.5884 -2.5426,2.79155 -4.6862,5.86873 -5.2245,7.5 -0.5021,1.52143 -1.118,2.76623 -1.3686,2.76623 -0.2506,0 -2.5088,3.825 -5.0182,8.5 -2.5094,4.675 -7.541,13.6 -11.1813,19.83333 -3.6403,6.23333 -10.0768,18.23333 -14.3034,26.66667 l -7.6846,15.33333 -3.2181,11.97318 c -2.093,7.78689 -2.975,12.12351 -2.5225,12.40313 0.4522,0.27949 0.3507,0.77484 -0.29,1.41559 -0.5421,0.54211 -0.9745,1.71071 -0.9607,2.59688 0.014,0.88617 -0.6149,3.25699 -1.397,5.26847 -0.782,2.0115 -1.4218,4.6902 -1.4218,5.95268 0,1.26247 -0.3031,3.2167 -0.6736,4.34274 -0.3704,1.12603 -1.2028,4.29733 -1.8498,7.04733 l -1.1762,5 13.0165,-0.36069 13.0164,-0.36068 5.3334,-1.55459 c 2.9333,-0.85502 7.8833,-2.83075 11,-4.39052 3.1166,-1.55977 7.3798,-3.37394 9.4736,-4.03149 l 3.8069,-1.19556 2.7734,0.83092 c 1.5253,0.457 4.0104,1.98484 5.5224,3.3952 1.5119,1.41035 2.5389,2.77442 2.2821,3.03124 -0.2569,0.25683 -1.8815,-0.46996 -3.6104,-1.6151 -1.7288,-1.14514 -3.4668,-2.07962 -3.8623,-2.07662 -0.3955,0.003 -2.1919,0.85221 -3.9919,1.88716 l -3.2728,1.88172 -3.3939,5.71816 c -1.8666,3.14498 -5.3255,7.92076 -7.6865,10.61283 -2.361,2.69208 -4.9622,5.42276 -5.7805,6.06818 -0.8802,0.69425 -5.0852,1.85137 -10.2964,2.83333 l -8.8086,1.65984 h -13.0027 c -8.09353,0 -16.25583,-0.41228 -21.61893,-1.09199 -4.9991,-0.63355 -8.8495,-0.84346 -9.1719,-0.5 -0.3056,0.3256 -2.6736,6.52544 -5.2621,13.77743 -2.5891,7.25356 -5.2067,15.95124 -5.8183,19.33333 -0.6116,3.38135 -1.8616,7.9479 -2.7776,10.1479 l -1.6656,4 0.3968,5.66667 c 0.2182,3.11666 0.6915,7.91666 1.0517,10.66666 0.3601,2.75 0.668,7.55364 0.6841,10.67474 l 0.029,5.6748 1.61,5.0724 c 0.8854,2.7899 2.9462,7.8863 4.5794,11.3253 1.6332,3.43902 3.4836,7.67782 4.1118,9.41942 0.6284,1.7417 1.3851,3.1667 1.6817,3.1667 0.2966,0 0.7133,0.6935 0.9261,1.5411 0.2127,0.8476 1.0854,2.3541 1.9393,3.3479 l 1.5526,1.8068 12.6329,0.2764 c 6.9481,0.1521 13.23293,0.2845 13.96623,0.2943 0.7334,0.01 4.6143,-0.1961 8.6243,-0.4576 l 7.2909,-0.4756 -5.2292,-4.6666 c -2.8761,-2.5667 -5.7347,-5.4933 -6.3525,-6.5037 -0.6178,-1.0103 -2.3208,-3.1103 -3.7843,-4.6666 -1.4636,-1.5564 -3.52083,-3.42972 -4.57143,-4.16312 -1.0508,-0.7333 -4.3255,-3.7159 -7.2774,-6.6279 l -5.367,-5.2946 -5.1244,-8.3042 -5.1245,-8.3042 -1.7809,-7.65817 -1.7809,-7.65817 1.9748,-9.74303 c 1.0861,-5.35867 2.6291,-11.54303 3.4288,-13.74303 0.7997,-2.2 1.7809,-4.65026 2.1804,-5.44501 0.3996,-0.79476 1.9641,-5.11343 3.4766,-9.59706 1.56,-4.62418 3.2496,-8.46579 3.9043,-8.87703 l 1.1542,-0.72497 1.1124,1.11241 1.1124,1.11242 -1.168,4.20962 c -0.6424,2.31529 -2.9386,8.87834 -5.1025,14.58455 -2.6338,6.9451 -4.4664,13.14394 -5.5434,18.75091 l -1.6088,8.37596 1.7878,7.2491 1.7879,7.2491 5.3181,8.6017 5.3181,8.6017 17.67213,17.22602 17.6722,17.2261 -0.7391,1.1722 -0.7391,1.1723 -26.03613,0.1743 -26.0361,0.1744 -2.9859,-5.5077 z m 59.24783,-118.81677 c 1.2844,-0.53665 2.7349,-1.36165 3.2232,-1.83333 0.4884,-0.47168 1.6029,-1.46106 2.4767,-2.19862 0.8737,-0.73757 2.9387,-2.19714 4.5887,-3.24348 1.65,-1.04634 3.825,-3.1818 4.8333,-4.74546 1.0083,-1.56365 1.8333,-3.14699 1.8333,-3.51852 0,-0.37154 0.45,-0.8482 1,-1.05926 0.55,-0.21106 1,-1.11106 1,-2 0,-0.88894 -0.4745,-1.79836 -1.0545,-2.02092 -0.58,-0.22257 -1.4787,-0.40466 -1.9972,-0.40466 -0.5185,0 -3.2653,1.07287 -6.1042,2.38416 -2.8389,1.3113 -5.3212,2.64253 -5.5164,2.9583 -0.1951,0.31576 -1.2487,0.94608 -2.3413,1.4007 l -1.9864,0.82658 -18.6667,0.11581 c -10.26663,0.0637 -22.56663,0.33 -27.33333,0.59177 -4.7667,0.26178 -9.988,0.56946 -11.603,0.68374 l -2.9364,0.20779 -3.634,-1.60711 c -1.9986,-0.88392 -4.0732,-2.04646 -4.6102,-2.58343 -0.537,-0.53697 -1.7488,-1.17018 -2.6929,-1.40713 -0.9441,-0.23696 -2.2454,-0.95969 -2.8917,-1.60608 -0.6464,-0.64638 -2.8273,-1.54494 -4.8464,-1.99679 -2.019,-0.45185 -4.1468,-0.63898 -4.7282,-0.41585 -0.5815,0.22313 -1.0572,1.1051 -1.0572,1.95995 0,0.85484 0.36,1.91425 0.8,2.35425 0.44,0.44 1.2838,0.8 1.8752,0.8 0.5914,0 1.8814,0.84142 2.8667,1.86982 0.9853,1.02839 1.7914,2.24329 1.7914,2.69977 0,0.45648 0.4252,1.65215 0.9448,2.65705 0.5663,1.09515 2.3023,2.4629 4.3333,3.41419 1.8638,0.8729 3.3886,1.83581 3.3886,2.1398 0,0.30399 0.45,0.55271 1,0.55271 0.55,0 1,0.25444 1,0.56542 0,0.31097 1.196,1.10473 2.6577,1.7639 l 2.6578,1.19848 4.5089,-0.53128 c 2.4799,-0.29222 7.7846,-0.49522 11.7884,-0.45114 4.0037,0.0441 7.5887,0.38941 7.9667,0.76739 0.4363,0.43639 6.973,0.68723 17.90863,0.68723 h 17.2214 z m -32.19293,-17.49853 c -0.1694,-0.44419 0.2152,-3.29419 0.8547,-6.33334 0.6396,-3.03914 1.5323,-5.97572 1.9838,-6.52572 0.4515,-0.55 1.47613,-2.30267 2.27693,-3.89483 0.8404,-1.67104 1.8239,-5.61672 2.3264,-9.33333 0.4788,-3.54118 1.0447,-6.8885 1.2576,-7.4385 0.2128,-0.55 0.7154,-4.43677 1.1168,-8.63726 0.4014,-4.2005 0.9806,-7.9505 1.2872,-8.33334 0.3066,-0.38284 0.7699,-1.74607 1.0296,-3.0294 0.2596,-1.28334 4.6093,-10.43334 9.6658,-20.33334 5.0566,-9.9 11.0564,-21.15 13.3329,-25 2.2764,-3.85 4.7002,-7.52622 5.386,-8.16938 0.686,-0.64315 1.551,-2.29776 1.9224,-3.67691 0.3714,-1.37915 1.6576,-3.97671 2.8583,-5.77235 1.2007,-1.79565 2.7065,-4.04104 3.3462,-4.98976 0.6397,-0.94871 1.1647,-2.38993 1.1667,-3.20271 0,-0.81277 1.0535,-2.52777 2.3368,-3.81111 1.2834,-1.28333 2.3334,-2.94333 2.3334,-3.68889 v -1.35555 h -1.6667 c -0.9167,0 -1.6667,0.29623 -1.6667,0.6583 0,0.36207 -1.2486,1.44653 -2.7747,2.40992 -1.5261,0.96338 -5.0511,2.87308 -7.8333,4.24376 l -5.0586,2.49214 -11.6667,1.17455 c -6.4167,0.64601 -13.1667,1.36508 -15,1.59794 l -3.3334,0.42339 0.2231,12.66666 c 0.1227,6.96667 -0.1019,16.89987 -0.4992,22.07379 -0.3973,5.17391 -1.4859,12.78919 -2.41893,16.92283 -0.9332,4.13365 -2.1399,8.37286 -2.6816,9.42047 -0.5418,1.04761 -0.8185,2.58233 -0.6151,3.41049 0.2035,0.82817 -0.3677,4.80576 -1.2692,8.83909 -0.9015,4.03333 -2.5861,9.58333 -3.7435,12.33333 -1.1573,2.75 -2.3329,5.90706 -2.6123,7.01569 -0.2795,1.10862 -0.8742,2.69982 -1.3217,3.53599 -0.4476,0.83618 -1.223,2.77912 -1.7232,4.31766 -0.5002,1.53853 -1.9759,5.34733 -3.2794,8.464 l -2.3699,5.66666 -0.011,3.4435 -0.011,3.44348 8.5801,-0.11015 8.58,-0.11016 -0.3082,-0.80761 z"
       id="path987"
       sodipodi:nodetypes="sscsssssscsssssscsssssscccssssssssscsscsscssssscsscsssssssssssscsssssssscccssscsssssscsssscsssssscssscsssssscssscssssscccccssssscccsssccccccccccccsssssssssssssscssscssssssssssssssssscsssscsssssssssssssssscsscsssscsscsssssssssssccccccs" /></g></svg>
